<svg width="64.000000" height="64.000000" viewBox="0 0 64 64" fill="none" xmlns="http://www.w3.org/2000/svg" xmlns:xlink="http://www.w3.org/1999/xlink">
	<desc>
			Created with Pixso.
	</desc>
	<defs>
		<clipPath id="clip6_36615">
			<rect id="user2" width="24.000000" height="24.000000" transform="translate(20.000000 20.000000)" fill="white" fill-opacity="0"/>
		</clipPath>
		<clipPath id="clip6_36616">
			<rect id="Icon" width="28.000000" height="28.000000" transform="translate(18.000000 18.000000)" fill="white" fill-opacity="0"/>
		</clipPath>
	</defs>
	<path id="↳ Background" d="M32 64C49.67 64 64 49.67 64 32C64 14.32 49.67 0 32 0C14.32 0 0 14.32 0 32C0 49.67 14.32 64 32 64Z" fill="#E2E2E2" fill-opacity="1.000000" fill-rule="evenodd"/>
	<g clip-path="url(#clip6_36616)">
		<rect id="user2" width="24.000000" height="24.000000" transform="translate(20.000000 20.000000)" fill="#FFFFFF" fill-opacity="0"/>
		<g clip-path="url(#clip6_36615)">
			<path id="Vector" d="M32 32C33.18 32 34.34 31.64 35.33 30.98C36.32 30.32 37.08 29.39 37.54 28.29C37.99 27.2 38.11 25.99 37.88 24.82C37.65 23.66 37.08 22.59 36.24 21.75C35.4 20.91 34.33 20.34 33.17 20.11C32 19.88 30.8 20 29.7 20.45C28.6 20.91 27.67 21.67 27.01 22.66C26.35 23.65 26 24.81 26 26C26 27.59 26.63 29.11 27.75 30.24C28.88 31.36 30.4 31.99 32 32ZM32 22C32.79 22 33.56 22.23 34.22 22.67C34.88 23.11 35.39 23.73 35.69 24.46C35.99 25.2 36.07 26 35.92 26.78C35.76 27.55 35.38 28.26 34.82 28.82C34.26 29.38 33.55 29.76 32.78 29.92C32 30.07 31.2 29.99 30.46 29.69C29.73 29.39 29.11 28.87 28.67 28.22C28.23 27.56 28 26.79 28 26C28 24.93 28.42 23.92 29.17 23.17C29.92 22.42 30.93 22 32 22Z" fill="#9E9B98" fill-opacity="1.000000" fill-rule="nonzero"/>
			<path id="Vector" d="M32 33.99C29.61 34 27.32 34.95 25.63 36.63C23.95 38.32 23 40.61 23 42.99C23 43.26 23.1 43.51 23.29 43.7C23.48 43.89 23.73 43.99 24 43.99C24.26 43.99 24.51 43.89 24.7 43.7C24.89 43.51 25 43.26 25 42.99C25 41.14 25.73 39.36 27.05 38.04C28.36 36.73 30.14 35.99 32 35.99C33.85 35.99 35.63 36.73 36.94 38.04C38.26 39.36 39 41.14 39 42.99C39 43.26 39.1 43.51 39.29 43.7C39.48 43.89 39.73 43.99 40 43.99C40.26 43.99 40.51 43.89 40.7 43.7C40.89 43.51 41 43.26 41 42.99C40.99 40.61 40.04 38.32 38.36 36.63C36.67 34.95 34.38 34 32 33.99Z" fill="#9E9B98" fill-opacity="1.000000" fill-rule="nonzero"/>
		</g>
	</g>
</svg>
