<svg width="24.000000" height="24.000000" viewBox="0 0 24 24" fill="none" xmlns="http://www.w3.org/2000/svg" xmlns:xlink="http://www.w3.org/1999/xlink">
	<desc>
			Created with Pixso.
	</desc>
	<defs>
		<clipPath id="clip16_10378">
			<rect id="check" width="24.000000" height="24.000000" fill="white" fill-opacity="0"/>
		</clipPath>
	</defs>
	<rect id="check" width="24.000000" height="24.000000" fill="#FFFFFF" fill-opacity="0"/>
	<g clip-path="url(#clip16_10378)">
		<path id="Vector" d="M22.31 4.43L8.49 18.24C8.4 18.34 8.29 18.41 8.17 18.46C8.05 18.51 7.92 18.54 7.79 18.54C7.65 18.54 7.52 18.51 7.4 18.46C7.28 18.41 7.17 18.34 7.08 18.24L1.73 12.9C1.64 12.8 1.53 12.73 1.41 12.68C1.29 12.63 1.16 12.6 1.03 12.6C0.89 12.6 0.76 12.63 0.64 12.68C0.52 12.73 0.41 12.8 0.32 12.9C0.22 12.99 0.15 13.1 0.1 13.22C0.05 13.34 0.02 13.47 0.02 13.6C0.02 13.74 0.05 13.87 0.1 13.99C0.15 14.11 0.22 14.22 0.32 14.31L5.66 19.66C6.23 20.22 6.99 20.54 7.79 20.54C8.58 20.54 9.35 20.22 9.91 19.66L23.73 5.84C23.82 5.75 23.9 5.64 23.95 5.52C24 5.4 24.02 5.27 24.02 5.13C24.02 5 24 4.87 23.95 4.75C23.9 4.63 23.82 4.52 23.73 4.43C23.64 4.33 23.53 4.26 23.41 4.21C23.28 4.16 23.15 4.13 23.02 4.13C22.89 4.13 22.76 4.16 22.64 4.21C22.52 4.26 22.41 4.33 22.31 4.43Z" fill="#1C1C1C" fill-opacity="1.000000" fill-rule="nonzero"/>
	</g>
</svg>
