<svg width="32.000000" height="32.000000" viewBox="0 0 32 32" fill="none" xmlns="http://www.w3.org/2000/svg" xmlns:xlink="http://www.w3.org/1999/xlink">
	<desc>
			Created with Pixso.
	</desc>
	<defs>
		<clipPath id="clip6_40044">
			<rect id="check" width="32.000000" height="32.000000" transform="translate(-0.500000 0.000000)" fill="white" fill-opacity="0"/>
		</clipPath>
	</defs>
	<rect id="check" width="32.000000" height="32.000000" transform="translate(-0.500000 0.000000)" fill="#FFFFFF" fill-opacity="0"/>
	<g clip-path="url(#clip6_40044)">
		<path id="Vector" d="M29.25 5.9L10.83 24.33C10.71 24.45 10.56 24.55 10.4 24.62C10.23 24.68 10.06 24.72 9.88 24.72C9.71 24.72 9.53 24.68 9.37 24.62C9.21 24.55 9.06 24.45 8.94 24.33L1.81 17.2C1.69 17.07 1.54 16.97 1.38 16.9C1.22 16.84 1.04 16.8 0.87 16.8C0.69 16.8 0.52 16.84 0.36 16.9C0.2 16.97 0.05 17.07 -0.08 17.2C-0.2 17.32 -0.3 17.47 -0.37 17.63C-0.43 17.79 -0.47 17.96 -0.47 18.14C-0.47 18.32 -0.43 18.49 -0.37 18.65C-0.3 18.81 -0.2 18.96 -0.08 19.08L7.05 26.21C7.8 26.96 8.82 27.38 9.89 27.38C10.95 27.38 11.97 26.96 12.72 26.21L31.14 7.79C31.27 7.67 31.37 7.52 31.43 7.36C31.5 7.2 31.54 7.02 31.54 6.85C31.54 6.67 31.5 6.5 31.43 6.34C31.37 6.17 31.27 6.03 31.14 5.9C31.02 5.78 30.87 5.68 30.71 5.61C30.55 5.54 30.37 5.51 30.2 5.51C30.02 5.51 29.85 5.54 29.69 5.61C29.53 5.68 29.38 5.78 29.25 5.9Z" fill="#1C1C1C" fill-opacity="1.000000" fill-rule="nonzero"/>
	</g>
</svg>
