<svg width="16.000000" height="16.000000" viewBox="0 0 16 16" fill="none" xmlns="http://www.w3.org/2000/svg" xmlns:xlink="http://www.w3.org/1999/xlink">
	<desc>
			Created with Pixso.
	</desc>
	<defs>
		<clipPath id="clip6_14812">
			<rect id="exit" width="16.000000" height="16.000000" fill="white" fill-opacity="0"/>
		</clipPath>
	</defs>
	<rect id="exit" width="16.000000" height="16.000000" fill="#FFFFFF" fill-opacity="0"/>
	<g clip-path="url(#clip6_14812)">
		<path id="Vector" d="M15.21 6.11L12.63 3.52C12.5 3.4 12.33 3.33 12.16 3.34C11.98 3.34 11.82 3.41 11.69 3.53C11.57 3.66 11.5 3.82 11.5 4C11.5 4.17 11.56 4.34 11.69 4.47L14.27 7.05C14.35 7.13 14.42 7.22 14.47 7.31C14.46 7.31 14.45 7.31 14.44 7.31L3.99 7.33C3.81 7.33 3.64 7.4 3.52 7.52C3.39 7.65 3.32 7.82 3.32 8C3.32 8.17 3.39 8.34 3.52 8.47C3.64 8.59 3.81 8.66 3.99 8.66L14.44 8.64C14.46 8.64 14.47 8.63 14.49 8.63C14.43 8.74 14.36 8.85 14.27 8.94L11.68 11.52C11.62 11.59 11.57 11.66 11.53 11.74C11.5 11.82 11.48 11.91 11.48 12C11.48 12.09 11.5 12.17 11.53 12.26C11.56 12.34 11.61 12.41 11.67 12.47C11.74 12.54 11.81 12.59 11.89 12.62C11.98 12.65 12.06 12.67 12.15 12.67C12.24 12.67 12.33 12.65 12.41 12.62C12.49 12.58 12.56 12.53 12.63 12.47L15.21 9.88C15.71 9.38 15.99 8.7 15.99 8C15.99 7.29 15.71 6.61 15.21 6.11L15.21 6.11Z" fill="#1C1C1C" fill-opacity="1.000000" fill-rule="nonzero"/>
		<path id="Vector" d="M4.66 14.66L3.33 14.66C2.8 14.66 2.29 14.45 1.91 14.08C1.54 13.7 1.33 13.19 1.33 12.66L1.33 3.33C1.33 2.8 1.54 2.29 1.91 1.91C2.29 1.54 2.8 1.33 3.33 1.33L4.66 1.33C4.84 1.33 5.01 1.26 5.13 1.13C5.26 1.01 5.33 0.84 5.33 0.66C5.33 0.49 5.26 0.32 5.13 0.19C5.01 0.07 4.84 0 4.66 0L3.33 0C2.44 0 1.6 0.35 0.97 0.97C0.35 1.6 0 2.44 0 3.33L0 12.66C0 13.55 0.35 14.39 0.97 15.02C1.6 15.64 2.44 15.99 3.33 16L4.66 16C4.84 16 5.01 15.92 5.13 15.8C5.26 15.67 5.33 15.5 5.33 15.33C5.33 15.15 5.26 14.98 5.13 14.86C5.01 14.73 4.84 14.66 4.66 14.66Z" fill="#1C1C1C" fill-opacity="1.000000" fill-rule="nonzero"/>
	</g>
</svg>
