<svg width="24.000000" height="24.000000" viewBox="0 0 24 24" fill="none" xmlns="http://www.w3.org/2000/svg" xmlns:xlink="http://www.w3.org/1999/xlink">
	<defs>
		<clipPath id="clip5_29907">
			<rect id="Icons-eye" width="24.000000" height="24.000000" fill="white" fill-opacity="0"/>
		</clipPath>
	</defs>
	<g clip-path="url(#clip5_29907)">
		<path id="Vector" d="M23.43 11.19C23.4 11.12 22.6 9.36 20.84 7.59C18.49 5.24 15.51 4 12.25 4C8.98 4 6 5.24 3.65 7.59C1.89 9.36 1.09 11.12 1.06 11.19C1.02 11.29 1 11.39 1 11.5C1 11.6 1.02 11.71 1.06 11.8C1.09 11.87 1.89 13.64 3.65 15.4C6 17.75 8.98 19 12.25 19C15.51 19 18.49 17.75 20.84 15.4C22.6 13.64 23.4 11.87 23.43 11.8C23.47 11.71 23.5 11.6 23.5 11.5C23.5 11.39 23.47 11.29 23.43 11.19ZM12.25 17.5C9.36 17.5 6.84 16.45 4.75 14.38C3.89 13.53 3.17 12.56 2.59 11.5C3.17 10.43 3.89 9.46 4.75 8.61C6.84 6.54 9.36 5.5 12.25 5.5C15.13 5.5 17.65 6.54 19.74 8.61C20.6 9.46 21.33 10.43 21.91 11.5C21.23 12.76 18.28 17.5 12.25 17.5ZM12.25 7C11.35 7 10.48 7.26 9.75 7.75C9.01 8.25 8.43 8.95 8.09 9.77C7.75 10.6 7.66 11.5 7.83 12.37C8.01 13.25 8.43 14.05 9.06 14.68C9.69 15.31 10.5 15.74 11.37 15.91C12.24 16.08 13.14 15.99 13.97 15.65C14.79 15.31 15.49 14.74 15.99 14C16.48 13.25 16.75 12.38 16.75 11.5C16.75 10.3 16.27 9.16 15.42 8.31C14.58 7.47 13.44 7 12.25 7ZM12.25 14.5C11.65 14.5 11.07 14.32 10.58 13.99C10.08 13.66 9.7 13.19 9.47 12.64C9.25 12.09 9.19 11.49 9.3 10.91C9.42 10.33 9.71 9.79 10.12 9.37C10.54 8.95 11.08 8.67 11.66 8.55C12.24 8.44 12.85 8.5 13.39 8.72C13.94 8.95 14.41 9.33 14.74 9.83C15.07 10.32 15.25 10.9 15.25 11.5C15.25 12.29 14.93 13.05 14.37 13.62C13.8 14.18 13.04 14.5 12.25 14.5Z" fill="#9E9B98" fill-opacity="1.000000" fill-rule="nonzero"/>
	</g>
</svg>
