<svg width="610.000000" height="395.000000" viewBox="0 0 610 395" fill="none" xmlns="http://www.w3.org/2000/svg" xmlns:xlink="http://www.w3.org/1999/xlink">
	<desc>
			Created with Pixso.
	</desc>
	<defs>
		<clipPath id="clip749_18550">
			<rect id="Illustration/Community" width="610.000000" height="395.000000" fill="white" fill-opacity="0"/>
		</clipPath>
		<linearGradient id="paint_linear_749_12131_0" x1="448.065796" y1="177.576111" x2="307.137695" y2="177.576111" gradientUnits="userSpaceOnUse">
			<stop stop-color="#FCE000"/>
			<stop offset="1.000000" stop-color="#EF534F"/>
		</linearGradient>
		<linearGradient id="paint_linear_749_12132_0" x1="434.644104" y1="178.918549" x2="344.664795" y2="178.918549" gradientUnits="userSpaceOnUse">
			<stop stop-color="#FCE000"/>
			<stop offset="1.000000" stop-color="#EF534F"/>
		</linearGradient>
		<linearGradient id="paint_linear_749_12141_0" x1="488.651520" y1="220.922729" x2="398.391113" y2="220.922729" gradientUnits="userSpaceOnUse">
			<stop stop-color="#FCE000"/>
			<stop offset="1.000000" stop-color="#EF534F"/>
		</linearGradient>
		<linearGradient id="paint_linear_749_12143_0" x1="445.748810" y1="171.143005" x2="429.589355" y2="171.143005" gradientUnits="userSpaceOnUse">
			<stop stop-color="#FCE000"/>
			<stop offset="1.000000" stop-color="#EF534F"/>
		</linearGradient>
		<linearGradient id="paint_linear_749_12146_0" x1="432.733765" y1="178.600006" x2="417.801514" y2="178.600006" gradientUnits="userSpaceOnUse">
			<stop stop-color="#FCE000"/>
			<stop offset="1.000000" stop-color="#EF534F"/>
		</linearGradient>
		<linearGradient id="paint_linear_749_12148_0" x1="429.551544" y1="188.610123" x2="419.654297" y2="188.610123" gradientUnits="userSpaceOnUse">
			<stop stop-color="#FCE000"/>
			<stop offset="1.000000" stop-color="#EF534F"/>
		</linearGradient>
		<linearGradient id="paint_linear_749_12151_0" x1="444.732788" y1="185.872070" x2="432.553223" y2="185.872070" gradientUnits="userSpaceOnUse">
			<stop stop-color="#FCE000"/>
			<stop offset="1.000000" stop-color="#EF534F"/>
		</linearGradient>
		<linearGradient id="paint_linear_749_12163_0" x1="612.212036" y1="178.067291" x2="471.283936" y2="178.067291" gradientUnits="userSpaceOnUse">
			<stop stop-color="#FCE000"/>
			<stop offset="1.000000" stop-color="#EF534F"/>
		</linearGradient>
		<linearGradient id="paint_linear_749_12173_0" x1="464.641937" y1="142.034958" x2="448.081543" y2="142.034958" gradientUnits="userSpaceOnUse">
			<stop stop-color="#FCE000"/>
			<stop offset="1.000000" stop-color="#EF534F"/>
		</linearGradient>
		<linearGradient id="paint_linear_749_12174_0" x1="464.991394" y1="132.048691" x2="448.550537" y2="132.048691" gradientUnits="userSpaceOnUse">
			<stop stop-color="#FCE000"/>
			<stop offset="1.000000" stop-color="#EF534F"/>
		</linearGradient>
		<linearGradient id="paint_linear_749_12175_0" x1="465.831726" y1="134.217163" x2="447.862793" y2="134.217163" gradientUnits="userSpaceOnUse">
			<stop stop-color="#FCE000"/>
			<stop offset="1.000000" stop-color="#EF534F"/>
		</linearGradient>
		<linearGradient id="paint_linear_749_12179_0" x1="539.491760" y1="136.134369" x2="491.274170" y2="136.134369" gradientUnits="userSpaceOnUse">
			<stop stop-color="#FCE000"/>
			<stop offset="1.000000" stop-color="#EF534F"/>
		</linearGradient>
		<linearGradient id="paint_linear_749_12186_0" x1="569.927856" y1="150.440262" x2="505.378906" y2="150.440262" gradientUnits="userSpaceOnUse">
			<stop stop-color="#FCE000"/>
			<stop offset="1.000000" stop-color="#EF534F"/>
		</linearGradient>
		<linearGradient id="paint_linear_749_12190_0" x1="542.537659" y1="124.584213" x2="501.876495" y2="124.584213" gradientUnits="userSpaceOnUse">
			<stop stop-color="#FCE000"/>
			<stop offset="1.000000" stop-color="#EF534F"/>
		</linearGradient>
		<linearGradient id="paint_linear_749_12191_0" x1="516.124084" y1="127.704742" x2="508.868652" y2="127.704742" gradientUnits="userSpaceOnUse">
			<stop stop-color="#FCE000"/>
			<stop offset="1.000000" stop-color="#EF534F"/>
		</linearGradient>
		<linearGradient id="paint_linear_749_12195_0" x1="566.378418" y1="135.473007" x2="544.173584" y2="135.473007" gradientUnits="userSpaceOnUse">
			<stop stop-color="#FCE000"/>
			<stop offset="1.000000" stop-color="#EF534F"/>
		</linearGradient>
		<linearGradient id="paint_linear_749_12208_0" x1="167.981934" y1="230.596588" x2="35.979736" y2="230.596588" gradientUnits="userSpaceOnUse">
			<stop stop-color="#FCE000"/>
			<stop offset="1.000000" stop-color="#EF534F"/>
		</linearGradient>
		<linearGradient id="paint_linear_749_12210_0" x1="47.735054" y1="179.554382" x2="35.979736" y2="179.554382" gradientUnits="userSpaceOnUse">
			<stop stop-color="#FCE000"/>
			<stop offset="1.000000" stop-color="#EF534F"/>
		</linearGradient>
		<linearGradient id="paint_linear_749_12211_0" x1="124.974312" y1="158.957520" x2="35.979736" y2="158.957520" gradientUnits="userSpaceOnUse">
			<stop stop-color="#FCE000"/>
			<stop offset="1.000000" stop-color="#EF534F"/>
		</linearGradient>
		<linearGradient id="paint_linear_749_12222_0" x1="185.430725" y1="238.888351" x2="52.517578" y2="238.888351" gradientUnits="userSpaceOnUse">
			<stop stop-color="#FCE000"/>
			<stop offset="1.000000" stop-color="#EF534F"/>
		</linearGradient>
		<linearGradient id="paint_linear_749_12245_0" x1="288.407928" y1="222.599518" x2="156.405762" y2="222.599518" gradientUnits="userSpaceOnUse">
			<stop stop-color="#FCE000"/>
			<stop offset="1.000000" stop-color="#EF534F"/>
		</linearGradient>
		<linearGradient id="paint_linear_749_12247_0" x1="168.165955" y1="171.557312" x2="156.410629" y2="171.557312" gradientUnits="userSpaceOnUse">
			<stop stop-color="#FCE000"/>
			<stop offset="1.000000" stop-color="#EF534F"/>
		</linearGradient>
		<linearGradient id="paint_linear_749_12248_0" x1="245.405228" y1="150.960449" x2="156.410645" y2="150.960449" gradientUnits="userSpaceOnUse">
			<stop stop-color="#FCE000"/>
			<stop offset="1.000000" stop-color="#EF534F"/>
		</linearGradient>
		<linearGradient id="paint_linear_749_12252_0" x1="295.244019" y1="210.354660" x2="171.615479" y2="210.354660" gradientUnits="userSpaceOnUse">
			<stop stop-color="#FCE000"/>
			<stop offset="1.000000" stop-color="#EF534F"/>
		</linearGradient>
		<linearGradient id="paint_linear_749_12270_0" x1="268.741730" y1="156.013931" x2="208.188721" y2="156.013931" gradientUnits="userSpaceOnUse">
			<stop stop-color="#FCE000"/>
			<stop offset="1.000000" stop-color="#EF534F"/>
		</linearGradient>
		<linearGradient id="paint_linear_749_12271_0" x1="246.087799" y1="159.575363" x2="231.322266" y2="159.575363" gradientUnits="userSpaceOnUse">
			<stop stop-color="#FCE000"/>
			<stop offset="1.000000" stop-color="#EF534F"/>
		</linearGradient>
		<linearGradient id="paint_linear_749_12283_0" x1="275.224243" y1="211.096466" x2="216.404297" y2="211.096466" gradientUnits="userSpaceOnUse">
			<stop stop-color="#FCE000"/>
			<stop offset="1.000000" stop-color="#EF534F"/>
		</linearGradient>
		<linearGradient id="paint_linear_749_12287_0" x1="444.095825" y1="186.779297" x2="72.989258" y2="186.779297" gradientUnits="userSpaceOnUse">
			<stop stop-color="#FCE000"/>
			<stop offset="1.000000" stop-color="#EF534F"/>
		</linearGradient>
		<linearGradient id="paint_linear_749_12304_0" x1="172.969513" y1="184.494995" x2="109.407471" y2="184.494995" gradientUnits="userSpaceOnUse">
			<stop stop-color="#FCE000"/>
			<stop offset="1.000000" stop-color="#EF534F"/>
		</linearGradient>
		<linearGradient id="paint_linear_749_12307_0" x1="274.361877" y1="174.808472" x2="257.041504" y2="174.808472" gradientUnits="userSpaceOnUse">
			<stop stop-color="#FCE000"/>
			<stop offset="1.000000" stop-color="#EF534F"/>
		</linearGradient>
		<linearGradient id="paint_linear_749_12308_0" x1="275.305237" y1="162.825775" x2="256.502930" y2="162.825775" gradientUnits="userSpaceOnUse">
			<stop stop-color="#FCE000"/>
			<stop offset="1.000000" stop-color="#EF534F"/>
		</linearGradient>
		<linearGradient id="paint_linear_749_12309_0" x1="276.488068" y1="165.482483" x2="255.816895" y2="165.482483" gradientUnits="userSpaceOnUse">
			<stop stop-color="#FCE000"/>
			<stop offset="1.000000" stop-color="#EF534F"/>
		</linearGradient>
		<linearGradient id="paint_linear_749_12315_0" x1="306.630188" y1="179.137848" x2="326.405029" y2="179.137848" gradientUnits="userSpaceOnUse">
			<stop stop-color="#FCE000"/>
			<stop offset="1.000000" stop-color="#EF534F"/>
		</linearGradient>
		<linearGradient id="paint_linear_749_12321_0" x1="306.231171" y1="170.348785" x2="323.574707" y2="170.348785" gradientUnits="userSpaceOnUse">
			<stop stop-color="#FCE000"/>
			<stop offset="1.000000" stop-color="#EF534F"/>
		</linearGradient>
		<linearGradient id="paint_linear_749_12322_0" x1="321.443207" y1="170.342636" x2="281.044434" y2="170.342636" gradientUnits="userSpaceOnUse">
			<stop stop-color="#FCE000"/>
			<stop offset="1.000000" stop-color="#EF534F"/>
		</linearGradient>
	</defs>
	<rect id="Illustration/Community" width="610.000000" height="395.000000" fill="#FFFFFF" fill-opacity="0"/>
	<g clip-path="url(#clip749_18550)">
		<path id="Vector" d="M552.59 260.74C539.96 331.25 378.76 364.18 331.41 363.83C315.37 363.71 294.53 364.13 271.42 363.95C206.29 363.43 121.53 343.58 76.2 307.96C61.53 296.44 50.84 281.75 46.01 263.02C38.46 233.69 52.59 191.59 80.52 151.35C122.1 91.43 194.26 35.63 271 32.16C313.51 30.25 357.42 44.4 398.31 82.83C460.02 140.82 560.19 218.32 552.59 260.74Z" fill="#FFF5A9" fill-opacity="1.000000" fill-rule="evenodd"/>
		<path id="Vector" d="M561.72 299.74L561.74 299.72C562.3 299.72 562.74 300.16 562.74 300.72C562.74 301.28 562.3 301.72 561.74 301.72L561.72 301.7L561.72 299.74ZM22.02 301.7L22 301.72C21.44 301.72 21 301.28 21 300.72C21 300.16 21.44 299.72 22 299.72L22.02 299.74L22.02 301.7Z" fill="#FFFFFF" fill-opacity="1.000000" fill-rule="nonzero"/>
		<path id="Vector" d="M561.74 300.72L22 300.72" stroke="#1C1C1C" stroke-opacity="1.000000" stroke-width="2.000000" stroke-linejoin="round" stroke-linecap="round"/>
		<path id="Vector" d="M351.29 288.43L355.79 288.43L345.15 214.21L340.65 214.86L351.29 288.43Z" fill="#FFFFFF" fill-opacity="1.000000" fill-rule="nonzero"/>
		<path id="Vector" d="M355.79 288.43L345.15 214.21L340.65 214.86L351.29 288.43L355.79 288.43Z" stroke="#1C1C1C" stroke-opacity="1.000000" stroke-width="2.000000" stroke-linejoin="round"/>
		<path id="Vector" d="M308.4 288.43L319.04 214.86L314.54 214.21L303.89 288.43L308.4 288.43Z" fill="#FFFFFF" fill-opacity="1.000000" fill-rule="nonzero"/>
		<path id="Vector" d="M319.04 214.86L314.54 214.21L303.89 288.43L308.4 288.43L319.04 214.86Z" stroke="#1C1C1C" stroke-opacity="1.000000" stroke-width="2.000000" stroke-linejoin="round"/>
		<path id="Vector" d="M400.21 225.21L398.64 214.24L393.63 214.9L404.28 288.43L409.29 288.51L400.21 225.21Z" fill="#FFFFFF" fill-opacity="1.000000" fill-rule="nonzero"/>
		<path id="Vector" d="M398.64 214.24L393.63 214.9L404.28 288.43L409.29 288.51L400.21 225.21L398.64 214.24Z" stroke="#1C1C1C" stroke-opacity="1.000000" stroke-width="2.000000" stroke-linejoin="round"/>
		<path id="Vector" d="M363.12 288.43L373.76 214.9L368.77 214.18L358.12 288.43L363.12 288.43Z" fill="#FFFFFF" fill-opacity="1.000000" fill-rule="nonzero"/>
		<path id="Vector" d="M373.76 214.9L368.77 214.18L358.12 288.43L363.12 288.43L373.76 214.9Z" stroke="#1C1C1C" stroke-opacity="1.000000" stroke-width="2.000000" stroke-linejoin="round"/>
		<path id="Vector" d="M400.48 216.35C401.23 218.87 401.23 222.39 401.23 222.39C401.23 222.39 361.72 225.66 350.9 225.16C340.08 224.65 315.43 221.63 312.92 219.62C310.4 217.61 313.17 213.58 313.17 213.58L400.48 216.35Z" fill="#1C1C1C" fill-opacity="1.000000" fill-rule="nonzero"/>
		<path id="Vector" d="M311.86 217.51C311.86 217.51 311.9 217.52 311.92 217.52C313.35 217.89 314.78 218.23 316.21 218.55C324.36 220.36 332.61 221.39 343.94 221.75C345.64 221.8 347.41 221.83 349.27 221.85C350.04 221.87 350.81 221.87 351.59 221.88C352.36 221.88 353.13 221.88 353.9 221.88C359.56 221.87 365.1 221.72 370.26 221.44C381.31 220.85 390.62 219.67 395.61 218C395.94 217.89 396.26 217.77 396.58 217.64C397.51 217.27 398.38 216.82 399.2 216.31C414.24 206.82 410.53 175.08 410.53 175.08C409.83 160.5 409.25 142.29 391.78 135.93C388.9 134.87 385.55 134.15 381.66 133.82C354.25 131.46 333.73 135.44 331.31 170.23C328.88 205.02 323.58 205.13 312.89 207.76C311.23 208.17 309.87 208.88 308.89 209.75C306.04 212.26 306.4 216.08 311.86 217.5L311.86 217.51ZM386.65 144.88C386.65 146.78 385.11 148.32 383.21 148.32L360.98 148.32C360.03 148.32 359.17 147.93 358.54 147.31C357.92 146.69 357.54 145.83 357.54 144.88C357.54 142.97 359.08 141.43 360.98 141.43L383.21 141.43C384.15 141.43 385.02 141.82 385.64 142.44C386.26 143.07 386.65 143.93 386.65 144.88Z" fill="url(#paint_linear_749_12131_0)" fill-opacity="1.000000" fill-rule="nonzero"/>
		<path id="Vector" d="M345.49 215.79C357.29 215.99 368.81 215.6 374.55 214.57C397.45 210.2 404.3 179.96 404.87 166.28C405.83 142.81 396.87 139.58 391.78 135.94C409.25 142.3 409.83 160.51 410.53 175.1C410.53 175.1 414.8 211.62 395.62 218.01C388.29 220.46 371.68 221.86 353.9 221.88C353.14 221.88 352.36 221.88 351.59 221.88C350.82 221.88 350.04 221.87 349.27 221.86C347.68 221.84 346.15 221.81 344.67 221.77C344.59 219.72 344.91 217.6 345.49 215.8L345.49 215.79Z" fill="url(#paint_linear_749_12132_0)" fill-opacity="1.000000" fill-rule="nonzero"/>
		<path id="Vector" d="M345.49 215.79C357.29 215.99 368.81 215.6 374.55 214.57C397.45 210.2 404.3 179.96 404.87 166.28C405.31 155.48 403.65 148.97 401.23 144.73" stroke="#1C1C1C" stroke-opacity="1.000000" stroke-width="2.000000" stroke-linejoin="round" stroke-linecap="round"/>
		<path id="Vector" d="M433.54 289.18C433.54 290.5 429.83 290.5 429.83 289.18L429.83 227.25L433.54 227.25L433.54 289.18Z" fill="#FFFFFF" fill-opacity="1.000000" fill-rule="nonzero"/>
		<path id="Vector" d="M429.83 289.18L429.83 227.25L433.54 227.25L433.54 289.18C433.54 290.5 429.83 290.5 429.83 289.18Z" stroke="#1C1C1C" stroke-opacity="1.000000" stroke-width="2.000000" stroke-linejoin="round"/>
		<path id="Vector" d="M406.12 287.38C406.12 289 402.07 289 402.07 287.38L402.07 226.19L406.12 226.19L406.12 287.38Z" fill="#FFFFFF" fill-opacity="1.000000" fill-rule="nonzero"/>
		<path id="Vector" d="M402.07 287.38L402.07 226.19L406.12 226.19L406.12 287.38C406.12 289 402.07 289 402.07 287.38Z" stroke="#1C1C1C" stroke-opacity="1.000000" stroke-width="2.000000" stroke-linejoin="round"/>
		<path id="Vector" d="M460.79 287.38C460.79 288.78 456.74 288.78 456.74 287.38L456.74 226.19L460.79 226.19L460.79 287.38Z" fill="#FFFFFF" fill-opacity="1.000000" fill-rule="nonzero"/>
		<path id="Vector" d="M456.74 287.38L456.74 226.19L460.79 226.19L460.79 287.38C460.79 288.78 456.74 288.78 456.74 287.38Z" stroke="#1C1C1C" stroke-opacity="1.000000" stroke-width="2.000000" stroke-linejoin="round"/>
		<path id="Vector" d="M398.38 220.92L398.38 225.51C398.38 229.98 464.87 229.98 464.87 225.51L464.87 220.92L398.38 220.92Z" fill="#1C1C1C" fill-opacity="1.000000" fill-rule="nonzero"/>
		<path id="Vector" d="M464.87 220.92C464.87 221.9 449.99 222.7 431.63 222.7C413.27 222.7 398.39 221.9 398.39 220.92C398.39 219.93 413.27 219.13 431.63 219.13C449.99 219.13 464.87 219.93 464.87 220.92Z" fill="url(#paint_linear_749_12141_0)" fill-opacity="1.000000" fill-rule="evenodd"/>
		<path id="Vector" d="M441.49 146.95C440.63 149.31 438.1 156.27 437.73 157.83C436.61 162.55 435.92 167.48 435.26 172.24C434.16 179.98 433.04 187.99 430.05 195.33L429.88 195.3C428.85 182.71 430.52 169.49 434.69 157.06L434.78 156.83C436.06 153.59 438.13 148.32 441.49 146.95Z" fill="url(#paint_linear_749_12143_0)" fill-opacity="1.000000" fill-rule="nonzero"/>
		<path id="Vector" d="M430.55 196.23L429.12 196.01L429.09 195.69C428.01 182.9 429.68 169.45 433.93 156.8L433.93 156.78L434.03 156.54C435.46 152.92 437.84 146.85 442.06 145.93L442.78 145.77L442.53 146.46C442.49 146.56 438.95 156.23 438.52 158.02C437.4 162.71 436.72 167.62 436.05 172.36C434.94 180.25 433.79 188.41 430.67 195.93L430.55 196.23ZM429.88 195.3L430.05 195.33C433.04 187.99 434.16 179.99 435.26 172.25C435.93 167.49 436.61 162.56 437.74 157.83C438.11 156.28 440.63 149.31 441.49 146.95C438.14 148.32 436.06 153.6 434.79 156.83L434.7 157.06C430.52 169.5 428.86 182.71 429.88 195.3L429.88 195.3Z" fill="#1C1C1C" fill-opacity="1.000000" fill-rule="nonzero"/>
		<path id="Vector" d="M428.08 194.41C425.69 180.49 419.77 167.02 417.8 162.78C422.74 166.35 426.06 171.16 427.66 177.09C429.02 182.11 429.16 187.92 428.08 194.41Z" fill="url(#paint_linear_749_12146_0)" fill-opacity="1.000000" fill-rule="nonzero"/>
		<path id="Vector" d="M428.45 176.87C426.66 170.27 422.81 165.01 417.01 161.26L415.76 160.45L416.42 161.78C416.51 161.95 425.05 179.2 427.59 196.47L427.64 196.82L428.46 196.82L428.52 196.49C430 189.1 429.97 182.5 428.45 176.87L428.45 176.87ZM427.66 177.09C429.02 182.11 429.16 187.92 428.08 194.41C425.69 180.49 419.77 167.02 417.8 162.78C422.74 166.35 426.06 171.16 427.66 177.09Z" fill="#1C1C1C" fill-opacity="1.000000" fill-rule="nonzero"/>
		<path id="Vector" d="M425.85 195.59C424.36 195.1 423.91 193.31 423.46 191.57C423.31 190.97 423.17 190.4 422.99 189.9C422.47 188 421.35 185.22 419.65 181.62C421.84 183.53 426.42 188.22 426.82 191.24L426.82 191.27C426.99 192.86 427.18 194.66 425.85 195.59L425.85 195.59Z" fill="url(#paint_linear_749_12148_0)" fill-opacity="1.000000" fill-rule="nonzero"/>
		<path id="Vector" d="M425.98 196.47L425.82 196.43C423.73 195.9 423.15 193.61 422.68 191.77C422.53 191.19 422.39 190.64 422.22 190.17L422.21 190.13C421.66 188.1 420.37 184.98 418.39 180.87L418.29 180.66C418.17 180.4 418.28 180.21 418.34 180.15C418.45 180.02 418.63 179.97 418.81 180.02C419.36 180.19 421.56 182.18 423.33 184.12C425.13 186.1 427.34 188.92 427.63 191.15L427.63 191.19C427.83 192.99 428.07 195.22 426.13 196.38L425.99 196.47L425.98 196.47ZM422.99 189.9C423.17 190.41 423.32 190.97 423.46 191.57C423.9 193.31 424.36 195.11 425.85 195.6C427.19 194.67 426.99 192.87 426.82 191.28L426.82 191.24C426.42 188.22 421.84 183.54 419.65 181.63C421.35 185.23 422.47 188.01 422.99 189.9Z" fill="#1C1C1C" fill-opacity="1.000000" fill-rule="nonzero"/>
		<path id="Vector" d="M441.52 176.41C439.64 180.26 435.16 189.63 433.26 195.29L432.87 195.32C431.83 191.49 433.52 187.29 435.14 184.4C436.75 181.53 439.1 178.6 441.52 176.42L441.52 176.41Z" fill="url(#paint_linear_749_12151_0)" fill-opacity="1.000000" fill-rule="nonzero"/>
		<path id="Vector" d="M442.49 174.55C436.97 178.79 429.88 188.51 432.18 195.88L432.28 196.19L433.87 196.06L433.95 195.8C436.28 188.71 443.03 175.18 443.1 175.05L443.89 173.47L442.49 174.55L442.49 174.55ZM432.87 195.33C431.83 191.5 433.51 187.29 435.14 184.41C436.75 181.53 439.1 178.6 441.52 176.42C439.64 180.27 435.16 189.64 433.26 195.3L432.87 195.34L432.87 195.33Z" fill="#1C1C1C" fill-opacity="1.000000" fill-rule="nonzero"/>
		<path id="Vector" d="M438.75 192.85L436.76 220.65C436.74 220.81 436.61 220.93 436.45 220.93L423.94 220.93C423.78 220.93 423.65 220.81 423.64 220.65L421.65 192.85L438.75 192.85Z" fill="#1C1C1C" fill-opacity="1.000000" fill-rule="nonzero"/>
		<path id="Vector" d="M515.44 288.92L519.94 288.92L509.3 214.7L504.79 215.35L515.44 288.92Z" fill="#FFFFFF" fill-opacity="1.000000" fill-rule="nonzero"/>
		<path id="Vector" d="M519.94 288.92L509.3 214.7L504.79 215.35L515.44 288.92L519.94 288.92Z" stroke="#1C1C1C" stroke-opacity="1.000000" stroke-width="2.000000" stroke-linejoin="round"/>
		<path id="Vector" d="M472.54 288.92L483.18 215.35L478.68 214.7L468.03 288.92L472.54 288.92Z" fill="#FFFFFF" fill-opacity="1.000000" fill-rule="nonzero"/>
		<path id="Vector" d="M483.18 215.35L478.68 214.7L468.03 288.92L472.54 288.92L483.18 215.35Z" stroke="#1C1C1C" stroke-opacity="1.000000" stroke-width="2.000000" stroke-linejoin="round"/>
		<path id="Vector" d="M564.35 225.7L562.78 214.73L557.78 215.39L568.42 288.92L573.43 288.99L564.35 225.7Z" fill="#FFFFFF" fill-opacity="1.000000" fill-rule="nonzero"/>
		<path id="Vector" d="M562.78 214.73L557.78 215.39L568.42 288.92L573.43 288.99L564.35 225.7L562.78 214.73Z" stroke="#1C1C1C" stroke-opacity="1.000000" stroke-width="2.000000" stroke-linejoin="round"/>
		<path id="Vector" d="M527.26 288.92L537.9 215.39L532.91 214.67L522.26 288.92L527.26 288.92Z" fill="#FFFFFF" fill-opacity="1.000000" fill-rule="nonzero"/>
		<path id="Vector" d="M537.9 215.39L532.91 214.67L522.26 288.92L527.26 288.92L537.9 215.39Z" stroke="#1C1C1C" stroke-opacity="1.000000" stroke-width="2.000000" stroke-linejoin="round"/>
		<path id="Vector" d="M564.62 216.84C565.37 219.35 565.37 222.87 565.37 222.87C565.37 222.87 525.86 226.14 515.04 225.64C504.23 225.14 479.57 222.12 477.06 220.1C474.54 218.09 477.31 214.07 477.31 214.07L564.62 216.84Z" fill="#1C1C1C" fill-opacity="1.000000" fill-rule="nonzero"/>
		<path id="Vector" d="M476.01 218C476.01 218 476.05 218.01 476.07 218.01C477.5 218.38 478.93 218.72 480.35 219.04C488.51 220.86 496.75 221.89 508.08 222.24C509.79 222.29 511.56 222.32 513.41 222.35C514.19 222.36 514.96 222.36 515.73 222.37C516.5 222.37 517.28 222.37 518.05 222.37C523.7 222.36 529.24 222.21 534.41 221.93C545.46 221.34 554.76 220.16 559.76 218.49C560.09 218.38 560.41 218.26 560.73 218.13C561.66 217.76 562.53 217.31 563.34 216.8C578.39 207.31 574.67 175.57 574.67 175.57C573.98 160.99 573.4 142.78 555.93 136.42C553.05 135.36 549.69 134.64 545.81 134.31C518.4 131.95 497.88 135.93 495.46 170.72C493.03 205.51 487.73 205.62 477.04 208.25C475.38 208.66 474.02 209.37 473.04 210.24C470.19 212.76 470.55 216.57 476.01 217.99L476.01 218ZM550.8 145.37C550.8 147.27 549.26 148.81 547.35 148.81L525.13 148.81C524.17 148.81 523.32 148.42 522.69 147.8C522.07 147.18 521.68 146.32 521.68 145.37C521.68 143.47 523.22 141.92 525.13 141.92L547.35 141.92C548.3 141.92 549.16 142.31 549.79 142.93C550.41 143.56 550.8 144.42 550.8 145.37Z" fill="url(#paint_linear_749_12163_0)" fill-opacity="1.000000" fill-rule="nonzero"/>
		<path id="b" d="M489.79 272.78C489.42 275.38 488.67 282.14 488.56 282.9C488.4 284.03 488.27 295.56 487.22 295.7C486.17 295.84 457.08 294.27 461.05 291.99C465.02 289.71 477.47 283.25 477.8 280.97L478.56 272.07L489.8 272.78L489.79 272.78Z" fill="#FFFFFF" fill-opacity="1.000000" fill-rule="nonzero"/>
		<path id="c" d="M489.27 277.85L488.56 282.9C488.4 284.03 488.27 295.56 487.22 295.7C486.17 295.84 457.08 294.27 461.05 291.99C465.02 289.71 477.47 283.25 477.8 280.97L477.89 279.17" stroke="#1C1C1C" stroke-opacity="1.000000" stroke-width="2.000000" stroke-linejoin="round" stroke-linecap="round"/>
		<path id="d" d="M453.98 264.06C451.45 271.02 448.52 279.49 448.14 281.4C447.75 283.31 447.08 285.6 446.13 288.28L421.35 281.06C420.95 280.95 420.72 280.53 420.84 280.13C420.91 279.9 421.07 279.72 421.29 279.64C434.42 274.65 441.16 271.59 441.48 270.46L444.39 260.36L453.98 264.07L453.98 264.06Z" fill="#FFFFFF" fill-opacity="1.000000" fill-rule="nonzero"/>
		<path id="e" d="M452.52 268.09C449.99 275.05 448.53 279.49 448.14 281.4C447.74 283.31 447.08 285.6 446.13 288.28L421.35 281.06C420.95 280.95 420.72 280.53 420.84 280.13C420.91 279.9 421.07 279.72 421.29 279.64C434.42 274.65 441.16 271.59 441.48 270.46L442.02 268.04" stroke="#1C1C1C" stroke-opacity="1.000000" stroke-width="2.000000" stroke-linejoin="round" stroke-linecap="round"/>
		<path id="Vector" d="M506.17 145.98C502.74 147.57 494.33 150.45 494.33 150.45L462.3 152.02C452.29 151.79 446.45 142.22 448.15 140.27C449.83 138.34 459.09 142.18 461.7 143.98C461.7 143.98 476.96 142.95 490.02 139.5L495.8 136.83L506.17 145.99L506.17 145.98Z" fill="#FFFFFF" fill-opacity="1.000000" fill-rule="nonzero"/>
		<path id="Vector" d="M506.17 145.98C502.74 147.57 494.33 150.45 494.33 150.45L462.3 152.02C452.29 151.79 446.45 142.22 448.15 140.27C449.83 138.34 459.07 142.01 461.68 143.81C461.68 143.81 476.96 142.95 490.02 139.5" stroke="#1C1C1C" stroke-opacity="1.000000" stroke-width="2.000000" stroke-linejoin="round" stroke-linecap="round"/>
		<path id="Vector" d="M448.08 150.38C447.89 151.8 456.41 152.91 456.6 151.49L460.27 133.36L449.2 131.91L448.08 150.37L448.08 150.38Z" fill="url(#paint_linear_749_12173_0)" fill-opacity="1.000000" fill-rule="nonzero"/>
		<path id="Vector" d="M448.55 133.26L460.57 134.83L460.66 130.82C460.72 130.32 449.56 128.86 449.5 129.36L448.55 133.26Z" fill="url(#paint_linear_749_12174_0)" fill-opacity="1.000000" fill-rule="nonzero"/>
		<path id="Vector" d="M448.13 134.14L460.74 135.79C460.93 135.81 461.09 135.67 461.09 135.48L461.09 134.56C461.09 134.41 460.97 134.28 460.82 134.26L448.46 132.64C448.3 132.61 448.15 132.71 448.11 132.86L447.87 133.75C447.82 133.93 447.94 134.11 448.13 134.14L448.13 134.14Z" fill="url(#paint_linear_749_12175_0)" fill-opacity="1.000000" fill-rule="nonzero"/>
		<path id="Vector" d="M459.38 135.53L449.72 134.27" stroke="#1C1C1C" stroke-opacity="1.000000" stroke-width="1.000000" stroke-linejoin="round" stroke-linecap="round"/>
		<path id="Vector" d="M460.38 134.18L448.94 132.68" stroke="#1C1C1C" stroke-opacity="1.000000" stroke-width="1.000000" stroke-linejoin="round" stroke-linecap="round"/>
		<path id="Vector" d="M448.39 145.8L457.51 146.99C457.62 147.01 457.73 146.93 457.76 146.81L459.15 139.72C459.18 139.6 459.09 139.48 458.97 139.46L448.92 138.14C448.8 138.13 448.68 138.22 448.67 138.35L448.19 145.56C448.19 145.67 448.27 145.77 448.39 145.79L448.39 145.8Z" fill="#1C1C1C" fill-opacity="1.000000" fill-rule="nonzero"/>
		<path id="f" d="M513.7 119.05C508.64 121.19 498.03 127.37 491.27 137.51C493.56 141.72 499.3 146.87 507.52 153.21L526.78 134.27L513.7 119.05Z" fill="url(#paint_linear_749_12179_0)" fill-opacity="1.000000" fill-rule="nonzero"/>
		<path id="g" d="M549.27 183.1C549.27 183.1 550.03 207.52 545.43 210.56C540.83 213.6 513.69 217.95 511.58 221.47C509.47 224.99 493.63 273.74 493.63 273.74L472.15 271.25C472.15 271.25 485.69 220.62 489.79 214.64C493.9 208.66 493.17 209.44 493.17 209.44C493.17 209.44 487.22 212.26 483.35 216.48C479.48 220.71 456.41 266.06 456.41 266.06L437.11 261.59C437.11 261.59 455.12 212.74 460.41 202.89C465.69 193.03 507.11 181.38 507.11 181.38L549.27 183.1L549.27 183.1Z" fill="#1C1C1C" fill-opacity="1.000000" fill-rule="nonzero"/>
		<path id="h" d="M538.7 117.23L533.93 116L532.58 106.5L534.25 104.41L534.93 101.42L537.18 101.1L538.24 98.93L537.55 96.69L536.82 96.04L537.62 92.06L522.53 91.48L521.67 92L519.82 95.98L518.91 100.45L519.98 104.18L521.8 106.44L524.33 107.96L525.25 107.83L526.37 116.6L519.84 116.57L526.09 123.15L539.02 122.99L538.7 117.23Z" fill="#FFFFFF" fill-opacity="1.000000" fill-rule="nonzero"/>
		<path id="i" d="M536.82 116.62C535.65 116.34 534.69 116.14 533.94 116C533.68 113.14 533.23 109.97 532.59 106.5C533.44 105.67 533.99 104.97 534.25 104.4C534.52 103.84 534.74 102.85 534.92 101.44C537.36 101.28 538.44 100.22 538.16 98.26C537.88 96.3 536.66 95.59 534.49 96.11" stroke="#1C1C1C" stroke-opacity="1.000000" stroke-width="2.000000" stroke-linejoin="round" stroke-linecap="round"/>
		<path id="j" d="M520.76 94.23C519.18 97.12 518.62 99.55 519.09 101.52C520.26 105.48 522.42 107.65 525.55 108.03L526.36 116.6L523.08 116.56" stroke="#1C1C1C" stroke-opacity="1.000000" stroke-width="2.000000" stroke-linejoin="round" stroke-linecap="round"/>
		<path id="k" d="M537.06 94.81C535.97 94.41 534.94 94.35 533.96 94.62" stroke="#1C1C1C" stroke-opacity="1.000000" stroke-width="2.000000" stroke-linejoin="round" stroke-linecap="round"/>
		<path id="l" d="M537.51 93.73C535.83 93.24 534.42 93.08 533.29 93.24C533.11 92.73 532.9 92.17 532.65 91.55C530.5 94.53 526.84 94.79 521.66 92.32C513.88 88.63 521.25 75.21 529.09 79.65C531.91 81.3 533.54 82.73 533.98 83.95C536.08 83.96 537.4 84.53 537.94 85.67C538.98 87.18 538.84 89.87 537.5 93.73L537.51 93.73Z" fill="#1C1C1C" fill-opacity="1.000000" fill-rule="nonzero"/>
		<path id="m" d="M549.97 163.94L551.01 182.57C541.45 185.46 531.59 185.58 526.25 185.33C520.9 185.07 505.37 180.39 505.37 180.39L507.98 161.33C507.98 161.33 503.67 125.37 507.05 122.81C510.41 120.25 520.28 115.29 520.85 115.46C521.42 115.64 523.4 120.33 528.61 120.87C533.83 121.4 538.55 116.49 538.92 116.54C539.3 116.58 552.69 120.31 552.91 120.43C553.12 120.56 549.97 163.95 549.97 163.95L549.97 163.94Z" fill="url(#paint_linear_749_12186_0)" fill-opacity="1.000000" fill-rule="nonzero"/>
		<path id="Vector" d="M507.69 150.62C507.92 144.81 509.2 137.06 510.44 136.25" stroke="#1C1C1C" stroke-opacity="1.000000" stroke-width="2.000000" stroke-linejoin="round" stroke-linecap="round"/>
		<path id="Vector" d="M525.1 114.58C525.02 114.47 524.85 114.16 524.66 113.83C524.32 113.23 523.67 112.9 523 112.98L509.52 114.47L506.33 111.47C505.83 111.01 505.07 110.95 504.51 111.35L503.25 112.25C503.34 112.68 508.35 117.26 508.35 117.26L525.1 114.58Z" fill="#FFFFFF" fill-opacity="1.000000" fill-rule="nonzero"/>
		<path id="Vector" d="M524.66 113.83C524.32 113.23 523.67 112.9 523 112.98L509.52 114.47L506.33 111.47C505.83 111.01 505.07 110.95 504.51 111.35L503.25 112.25C503.34 112.68 508.35 117.26 508.35 117.26L525.1 114.58C525.02 114.47 524.85 114.16 524.66 113.83Z" stroke="#1C1C1C" stroke-opacity="1.000000" stroke-width="2.000000"/>
		<path id="Vector" d="M525.71 114.33L508.6 116.46L501.87 110.35L510.73 135.72L514.32 138.81C514.32 138.81 531.82 136.64 531.82 135.72C531.82 134.8 525.71 114.33 525.71 114.33Z" fill="url(#paint_linear_749_12190_0)" fill-opacity="1.000000" fill-rule="nonzero"/>
		<path id="Vector" d="M508.6 116.46L501.87 110.35L510.73 135.72L514.32 138.81C514.32 138.81 531.82 136.64 531.82 135.72C531.82 134.8 525.71 114.33 525.71 114.33L508.6 116.46Z" stroke="#1C1C1C" stroke-opacity="1.000000" stroke-width="2.000000"/>
		<path id="Vector" d="" fill="url(#paint_linear_749_12191_0)" fill-opacity="1.000000" fill-rule="nonzero"/>
		<path id="Vector" d="M508.86 117.28L514.21 138.12" stroke="#1C1C1C" stroke-opacity="1.000000" stroke-width="2.000000"/>
		<path id="Vector" d="M544.17 151.11C534.85 147.83 521.33 132.69 521.4 131.6C520.4 127.77 512.5 124.29 509.59 124.81C507.92 125.25 511.72 133.08 515 135.93C519.88 141.28 542.08 163.72 548.44 163.57L551.76 164.27L559.37 149.05L547.46 147.5L544.17 151.1L544.17 151.11Z" fill="#FFFFFF" fill-opacity="1.000000" fill-rule="nonzero"/>
		<path id="Vector" d="M544.17 151.11C534.85 147.83 521.21 133.15 521.27 132.07C520.28 128.23 512.86 123.98 509.95 124.5C508.28 124.94 511.38 132.91 515 136.24C519.88 141.6 542.08 164.59 551.76 164.59C553.66 164.59 557.91 151.71 558.17 151.31" stroke="#1C1C1C" stroke-opacity="1.000000" stroke-width="2.000000" stroke-linejoin="round" stroke-linecap="round"/>
		<path id="n" d="M544.62 138.25C545.23 136.98 549.09 119.74 552.9 120.42C556.66 121.55 561.13 150.54 560.46 150.53C559.78 150.53 546.52 149.61 545.19 149.28C543.86 148.95 544.02 139.52 544.62 138.25L544.62 138.25Z" fill="url(#paint_linear_749_12195_0)" fill-opacity="1.000000" fill-rule="nonzero"/>
		<path id="Vector" d="M544.51 131.36C543.01 133.76 543.96 147.67 543.96 147.67" stroke="#1C1C1C" stroke-opacity="1.000000" stroke-width="2.000000" stroke-linejoin="round" stroke-linecap="round"/>
		<path id="Vector" d="M460.1 142.91C458.87 141.72 451.8 140.1 453.76 143.02C455.72 145.93 459 145.89 459 145.89M460.77 142.2L460.8 142.2C461.2 142.59 461.21 143.21 460.82 143.61C460.43 144.01 459.81 144.02 459.41 143.63L459.41 143.6L460.77 142.2ZM458.96 144.91L458.98 144.89C459.54 144.88 459.99 145.31 460 145.87C460 146.43 459.57 146.88 459.01 146.89L458.99 146.87L458.96 144.91Z" fill="#FFFFFF" fill-opacity="1.000000" fill-rule="nonzero"/>
		<path id="Vector" d="M460.1 142.91C458.87 141.72 451.8 140.1 453.76 143.02C455.72 145.93 459 145.89 459 145.89" stroke="#1C1C1C" stroke-opacity="1.000000" stroke-width="2.000000" stroke-linejoin="round" stroke-linecap="round"/>
		<path id="Vector" d="M561.02 142.91C562.91 146.88 570.83 155.81 569.25 176.69C567.67 197.57 566.52 216.08 537.91 215.39C528.86 215.78 519.1 216.19 511.58 221.48" stroke="#1C1C1C" stroke-opacity="1.000000" stroke-width="2.000000" stroke-linejoin="round" stroke-linecap="round"/>
		<path id="Vector" d="M69.99 290.64L69.99 235.64C69.99 234.22 71.77 233.06 73.96 233.06C76.15 233.06 77.93 234.22 77.93 235.64L77.93 290.64L69.99 290.64L69.99 290.64Z" fill="#FFFFFF" fill-opacity="1.000000" fill-rule="nonzero"/>
		<path id="Vector" d="M71.67 290.64L69.99 290.64L69.99 248.53M71.65 289.65L71.67 289.64C72.23 289.64 72.67 290.07 72.67 290.64C72.67 291.19 72.23 291.64 71.67 291.64L71.65 291.61L71.65 289.65ZM69.01 248.55L68.99 248.53C68.99 247.97 69.43 247.53 69.99 247.53C70.55 247.53 70.99 247.97 70.99 248.53L70.97 248.55L69.01 248.55Z" fill="#FFFFFF" fill-opacity="1.000000" fill-rule="nonzero"/>
		<path id="Vector" d="M71.67 290.64L69.99 290.64L69.99 248.53" stroke="#1C1C1C" stroke-opacity="1.000000" stroke-width="2.000000" stroke-linejoin="round" stroke-linecap="round"/>
		<path id="Vector" d="M41.42 308.63L41.42 236.44C41.42 234.57 43.75 233.06 46.63 233.06C49.51 233.06 51.84 234.57 51.84 236.44L51.84 308.63L41.42 308.63L41.42 308.63Z" fill="#FFFFFF" fill-opacity="1.000000" fill-rule="nonzero"/>
		<path id="Vector" d="M51.84 248.79L51.84 308.63L41.42 308.63L41.42 246.7M50.86 248.81L50.84 248.79C50.84 248.23 51.28 247.79 51.84 247.79C52.4 247.79 52.84 248.23 52.84 248.79L52.82 248.81L50.86 248.81ZM40.44 246.72L40.42 246.7C40.42 246.14 40.86 245.7 41.42 245.7C41.98 245.7 42.42 246.14 42.42 246.7L42.4 246.72L40.44 246.72Z" fill="#FFFFFF" fill-opacity="1.000000" fill-rule="nonzero"/>
		<path id="Vector" d="M51.84 248.79L51.84 308.63L41.42 308.63L41.42 246.7" stroke="#1C1C1C" stroke-opacity="1.000000" stroke-width="2.000000" stroke-linejoin="round" stroke-linecap="round"/>
		<path id="Vector" d="M98.82 308.63L98.82 236.44C98.82 234.57 101.15 233.06 104.03 233.06C106.91 233.06 109.24 234.57 109.24 236.44L109.24 308.63L98.82 308.63L98.82 308.63Z" fill="#FFFFFF" fill-opacity="1.000000" fill-rule="nonzero"/>
		<path id="Vector" d="M109.24 257.9L109.24 308.63L98.82 308.63L98.82 248.43M108.26 257.92L108.24 257.9C108.24 257.34 108.68 256.9 109.24 256.9C109.8 256.9 110.24 257.34 110.24 257.9L110.22 257.92L108.26 257.92ZM97.84 248.45L97.82 248.43C97.82 247.87 98.26 247.43 98.82 247.43C99.38 247.43 99.82 247.87 99.82 248.43L99.8 248.45L97.84 248.45Z" fill="#FFFFFF" fill-opacity="1.000000" fill-rule="nonzero"/>
		<path id="Vector" d="M109.24 257.9L109.24 308.63L98.82 308.63L98.82 248.43" stroke="#1C1C1C" stroke-opacity="1.000000" stroke-width="2.000000" stroke-linejoin="round" stroke-linecap="round"/>
		<path id="Vector" d="M133.2 224.1L133.2 245.89L49.97 245.89C42.24 245.89 35.97 239.63 35.97 231.91L35.97 224.1C63.59 209.78 97.83 215.24 133.19 224.1L133.2 224.1Z" fill="url(#paint_linear_749_12208_0)" fill-opacity="1.000000" fill-rule="nonzero"/>
		<path id="Vector" d="M117.77 231.31L117.77 245.89L49.97 245.89C42.24 245.89 35.97 239.63 35.97 231.91L35.97 231.31L117.77 231.31Z" fill="#1C1C1C" fill-opacity="1.000000" fill-rule="nonzero"/>
		<path id="Vector" d="M35.97 134.99L44.63 134.99L44.63 224.11L35.97 224.11L35.97 134.99Z" fill="url(#paint_linear_749_12210_0)" fill-opacity="1.000000" fill-rule="evenodd"/>
		<path id="Vector" d="M35.97 134.99L101.52 134.99L101.52 182.92L35.97 182.92L35.97 134.99Z" fill="url(#paint_linear_749_12211_0)" fill-opacity="1.000000" fill-rule="evenodd"/>
		<path id="Vector" d="M38.48 138.33L38.48 228.41" stroke="#1C1C1C" stroke-opacity="1.000000" stroke-width="2.000000" stroke-linejoin="round" stroke-linecap="round"/>
		<path id="Vector" d="M43.08 180.33L43.08 138.12" stroke="#1C1C1C" stroke-opacity="1.000000" stroke-width="2.000000" stroke-linejoin="round" stroke-linecap="round"/>
		<path id="Vector" d="M44.72 222.34C44.72 222.34 42.98 226.68 51.1 226.97C56.31 227.16 65.83 227.1 71.97 227.05" stroke="#1C1C1C" stroke-opacity="1.000000" stroke-width="2.000000" stroke-linejoin="round" stroke-linecap="round"/>
		<path id="o" d="M114.2 291.62C114.2 292.92 112.55 305.81 113.7 306.14C114.85 306.46 147.61 309.25 143.52 306.08C139.44 302.9 126.54 293.75 126.54 291.14L127.1 277.29L114.33 278.9C114.33 278.9 114.2 290.76 114.2 291.62Z" fill="#FFFFFF" fill-opacity="1.000000" fill-rule="nonzero"/>
		<path id="p" d="M114.28 287.66C114.28 288.95 112.55 305.81 113.7 306.14C114.85 306.46 147.61 309.25 143.53 306.08C139.44 302.9 126.54 293.75 126.54 291.14L126.46 287.85" stroke="#1C1C1C" stroke-opacity="1.000000" stroke-width="2.000000" stroke-linejoin="round" stroke-linecap="round"/>
		<path id="q" d="M130.75 289.6L157.99 300.08C158.44 300.23 158.91 299.99 159.06 299.54C159.15 299.29 159.11 299.01 158.95 298.8C149.95 285.75 145.66 278.6 146.07 277.34L148.47 268.75L138.44 263.85C138.44 263.85 131.58 286.51 130.75 289.6Z" fill="#FFFFFF" fill-opacity="1.000000" fill-rule="nonzero"/>
		<path id="r" d="M134.31 278.37C132.74 283.35 131.24 287.76 130.75 289.61L157.99 300.08C158.44 300.23 158.91 299.99 159.06 299.54C159.15 299.29 159.11 299.02 158.95 298.8C151.73 288.34 147.54 281.66 146.38 278.79" stroke="#1C1C1C" stroke-opacity="1.000000" stroke-width="2.000000" stroke-linejoin="round" stroke-linecap="round"/>
		<path id="Vector" d="M131.67 274.48L129.02 222.56L130.98 283.27C132.62 288.51 111.94 287.25 110.9 284.36L108.4 230.49C105.05 227.22 57.22 227.95 54.05 215.5C50.88 203.05 53.6 193.95 53.6 193.95L98.93 190.9C98.93 190.9 138.62 196.12 144.59 204.84C150.55 213.55 150.41 274.42 150.41 274.42C149.15 279.76 131.1 277.49 131.67 274.47L131.67 274.48Z" fill="url(#paint_linear_749_12222_0)" fill-opacity="1.000000" fill-rule="nonzero"/>
		<path id="s" d="M70.37 127.93L76.12 126.66L78.36 114.54L76.71 111.8L76.37 108.14L73.75 107.41L72.83 104.68L74.01 102.12L74.98 101.47L74.65 96.62L92.63 98.3L93.57 99.05L95.15 104.06L95.52 109.5L93.66 113.77L91.16 116.16L87.92 117.56L86.85 117.26L85.14 127.71L92.95 127.94L85.19 135.55L69.74 134.81L70.37 127.93Z" fill="#FFFFFF" fill-opacity="1.000000" fill-rule="nonzero"/>
		<path id="t" d="M72.64 127.28L76.04 127.12C76.04 127.12 77.04 118.56 78.35 114.54C77.48 113.43 76.93 112.51 76.71 111.8C76.49 111.08 76.38 109.87 76.38 108.17C73.52 107.61 72.4 106.18 73.04 103.9C73.68 101.62 75.24 100.96 77.74 101.93" stroke="#1C1C1C" stroke-opacity="1.000000" stroke-width="2.000000" stroke-linejoin="round" stroke-linecap="round"/>
		<path id="u" d="M94.3 101.84C95.72 105.51 96 108.49 95.14 110.75C93.13 115.26 90.23 117.5 86.45 117.46L85.14 127.71L89.07 127.79" stroke="#1C1C1C" stroke-opacity="1.000000" stroke-width="2.000000" stroke-linejoin="round" stroke-linecap="round"/>
		<path id="v" d="M74.88 99.98C76.24 99.67 77.47 99.76 78.58 100.23" stroke="#1C1C1C" stroke-opacity="1.000000" stroke-width="2.000000" stroke-linejoin="round" stroke-linecap="round"/>
		<path id="w" d="M74.52 98.62C76.58 98.3 78.27 98.33 79.6 98.7C79.89 98.13 80.23 97.5 80.63 96.8C82.7 100.67 87 101.55 93.54 99.44C103.34 96.28 96.71 79.21 86.71 83.25C83.1 84.76 80.94 86.2 80.23 87.57C77.75 87.25 76.09 87.72 75.27 88.99C73.79 90.62 73.55 93.83 74.53 98.61L74.52 98.62Z" fill="#1C1C1C" fill-opacity="1.000000" fill-rule="nonzero"/>
		<path id="Vector" d="M142.94 188.4L142.07 190.81L141.26 193.07L140.56 195L126.82 193.53L96.69 183.6L91.45 166.86C91.4 166.67 91.34 166.47 91.29 166.29C89.84 161.01 89.28 156.5 94.11 152.98C96.15 151.49 98.43 150.74 100.6 150.68C103.75 150.59 106.66 151.95 108.14 154.64L109.17 163.63L111.34 175.32L129.41 182.81L133.23 184.39L135.09 185.17L137.86 186.31L142.51 188.24L142.93 188.42L142.94 188.4Z" fill="#FFFFFF" fill-opacity="1.000000" fill-rule="nonzero"/>
		<path id="Vector" d="M103.25 130.37C98.13 126.99 94.05 131.13 90.66 134.81L87.06 160.11C87.06 160.11 106.36 163.15 109.22 159.07C112.08 155 103.25 130.37 103.25 130.37Z" fill="#1C1C1C" fill-opacity="1.000000" fill-rule="nonzero"/>
		<path id="x" d="M70.42 127.17C72.24 130.04 77 133.23 81.53 133.58C86.06 133.93 90.47 130.55 91.77 127.49C97.84 126.19 100.45 128.07 103.05 129.99C103.04 136.91 105.93 158.21 105.93 158.21C105.74 167.24 107.86 187.2 106.09 190.99C104.33 194.78 93.57 198.44 81.95 198.05C70.33 197.66 63.76 200.57 53.91 195.08C53.91 195.08 46.9 154.5 54.18 134.46C57.23 126.06 66.41 127.24 70.42 127.16L70.42 127.17Z" fill="#1C1C1C" fill-opacity="1.000000" fill-rule="nonzero"/>
		<path id="Vector" d="M54.2 198.35C54.2 198.35 50.98 213.44 56.77 218.8C63.99 225.48 100.35 226.86 100.35 226.86" stroke="#1C1C1C" stroke-opacity="1.000000" stroke-width="2.000000" stroke-linecap="round"/>
		<path id="Vector" d="M103.45 227.08C103.45 227.08 108.08 227.74 110.28 230.83C112.34 233.71 110.73 247.6 110.73 247.6" stroke="#1C1C1C" stroke-opacity="1.000000" stroke-width="2.000000" stroke-linejoin="round" stroke-linecap="round"/>
		<path id="Vector" d="M105.04 187.13L104.17 189.54L103.36 191.8L102.66 193.72L88.92 192.26L58.79 182.33L53.55 165.59C53.5 165.39 53.44 165.2 53.39 165.01C51.94 159.74 51.38 155.23 56.21 151.7C58.24 150.22 60.53 149.47 62.7 149.41C65.85 149.32 68.76 150.68 70.23 153.37L71.27 162.35L73.44 174.05L91.51 181.53L95.33 183.12L97.19 183.89L99.96 185.04L104.61 186.97L105.03 187.14L105.04 187.13Z" fill="#FFFFFF" fill-opacity="1.000000" fill-rule="nonzero"/>
		<path id="Vector" d="M68.99 145.37C62.3 143.06 56.49 143.36 51.71 146.73L51.36 158.23C51.36 158.23 66.16 164.81 74.33 165.29C73.82 157.17 68.99 145.38 68.99 145.38L68.99 145.37Z" fill="#1C1C1C" fill-opacity="1.000000" fill-rule="nonzero"/>
		<path id="Vector" d="M190.43 282.64L190.43 227.64C190.43 226.22 192.21 225.07 194.4 225.07C196.58 225.07 198.36 226.22 198.36 227.64L198.36 282.64L190.42 282.64L190.43 282.64Z" fill="#FFFFFF" fill-opacity="1.000000" fill-rule="nonzero"/>
		<path id="Vector" d="M198.37 239.19L198.37 282.64L190.43 282.64L190.43 239.27" stroke="#1C1C1C" stroke-opacity="1.000000" stroke-width="2.000000" stroke-linecap="round"/>
		<path id="Vector" d="M161.85 300.64L161.85 228.45C161.85 226.58 164.18 225.06 167.06 225.06C169.94 225.06 172.27 226.58 172.27 228.45L172.27 300.64L161.85 300.64L161.85 300.64Z" fill="#FFFFFF" fill-opacity="1.000000" fill-rule="nonzero"/>
		<path id="Vector" d="M171.46 231.35L171.46 300.64L162.66 300.64L162.66 231.35" stroke="#1C1C1C" stroke-opacity="1.000000" stroke-width="2.000000" stroke-linejoin="round" stroke-linecap="round"/>
		<path id="Vector" d="M219.25 300.64L219.25 228.45C219.25 226.58 221.58 225.06 224.46 225.06C227.35 225.06 229.68 226.58 229.68 228.45L229.68 300.64L219.26 300.64L219.25 300.64Z" fill="#FFFFFF" fill-opacity="1.000000" fill-rule="nonzero"/>
		<path id="Vector" d="M229.68 240.16L229.68 300.64L219.25 300.64L219.25 239.91" stroke="#1C1C1C" stroke-opacity="1.000000" stroke-width="2.000000" stroke-linecap="round"/>
		<path id="Vector" d="M253.63 216.11L253.63 237.9L170.39 237.9C162.67 237.9 156.4 231.64 156.4 223.91L156.4 216.1C184.02 201.79 218.25 207.24 253.62 216.1L253.63 216.11Z" fill="url(#paint_linear_749_12245_0)" fill-opacity="1.000000" fill-rule="nonzero"/>
		<path id="Vector" d="M238.2 223.31L238.2 237.9L170.4 237.9C162.67 237.9 156.41 231.64 156.41 223.91L156.41 223.31L238.2 223.31Z" fill="#1C1C1C" fill-opacity="1.000000" fill-rule="nonzero"/>
		<path id="Vector" d="M156.41 126.99L165.06 126.99L165.06 216.11L156.41 216.11L156.41 126.99Z" fill="url(#paint_linear_749_12247_0)" fill-opacity="1.000000" fill-rule="evenodd"/>
		<path id="Vector" d="M156.41 126.99L221.95 126.99L221.95 174.92L156.41 174.92L156.41 126.99Z" fill="url(#paint_linear_749_12248_0)" fill-opacity="1.000000" fill-rule="evenodd"/>
		<path id="Vector" d="M158.91 130.34L158.91 220.41" stroke="#1C1C1C" stroke-opacity="1.000000" stroke-width="2.000000" stroke-linejoin="round" stroke-linecap="round"/>
		<path id="Vector" d="M163.51 172.33L163.51 130.13" stroke="#1C1C1C" stroke-opacity="1.000000" stroke-width="2.000000" stroke-linejoin="round" stroke-linecap="round"/>
		<path id="Vector" d="M165.15 214.34C165.15 214.34 163.41 218.69 171.53 218.98C172.78 219.02 174.28 219.05 175.91 219.07" stroke="#1C1C1C" stroke-opacity="1.000000" stroke-width="2.000000" stroke-linejoin="round" stroke-linecap="round"/>
		<path id="y" d="M173.85 189.9C194.62 192.89 211.97 189.2 211.97 189.2C211.97 189.2 247.22 197.41 255.07 200.49C262.93 203.56 271.44 222.75 242.91 229.12C217.24 230.58 201.55 234.03 191.83 228.34C178.81 221.71 166.42 207.79 173.85 189.89L173.85 189.9Z" fill="url(#paint_linear_749_12252_0)" fill-opacity="1.000000" fill-rule="nonzero"/>
		<path id="a`" d="M181.71 221.37C175.04 215.22 170.42 206.83 171.88 196.88" stroke="#1C1C1C" stroke-opacity="1.000000" stroke-width="2.000000" stroke-linecap="round"/>
		<path id="aa" d="M225.58 154.97L228.81 158.96L237.55 156.06L242.78 151.89L249.33 151.23L253.74 152.2L246.39 161.11L242.6 161.59L229.6 171.85C229.6 171.85 227.61 174.14 224.19 173.25C220.78 172.36 215.75 159.11 215.75 159.11L225.58 154.97L225.58 154.97Z" fill="#FFFFFF" fill-opacity="1.000000" fill-rule="nonzero"/>
		<path id="ab" d="M227.87 157.95L228.92 159L237.29 156.34C240.09 153.79 242.22 152.29 243.68 151.85C245.87 151.19 254.11 151.22 253.6 152.58C253.25 153.48 250.85 156.33 246.39 161.11" stroke="#1C1C1C" stroke-opacity="1.000000" stroke-width="2.000000" stroke-linecap="round"/>
		<path id="ac" d="M216.36 160.54C219.36 167.94 222.08 173.05 224.45 173.15C226.82 173.26 225.65 174.71 242.59 161.58L246.33 161.25" stroke="#1C1C1C" stroke-opacity="1.000000" stroke-width="2.000000" stroke-linecap="round"/>
		<path id="ad" d="M186.49 120.85C185.95 121.11 185.02 121.08 183.7 120.77C182.38 120.46 181.34 119.59 180.56 118.14C179.47 118.12 178.35 119.14 177.2 121.24C175.49 124.39 178.98 130.37 178.09 132.7C177.5 134.26 176.38 135.81 174.71 137.38C181.13 136.88 185.07 134.64 186.53 130.67C187.99 126.69 186.93 123.68 186.49 120.85L186.49 120.85Z" fill="#1C1C1C" fill-opacity="1.000000" fill-rule="nonzero"/>
		<path id="ae" d="M211.18 100.28C212.29 96.63 212.16 93.76 210.8 91.64C208.75 88.47 202.72 83.68 195.19 84.48C187.66 85.29 182.58 92.48 180.82 99.84C179.65 104.75 179.99 110.03 181.86 115.7C183.14 117.56 184.51 118.51 185.98 118.55C188.18 118.61 192.65 117.61 194.18 116.05C195.2 115.01 200.86 109.76 211.18 100.28Z" fill="#1C1C1C" fill-opacity="1.000000" fill-rule="nonzero"/>
		<path id="af" d="M210.47 100.08L211.35 105.81L209.41 111.86L205.37 115.71L201.56 117.1L201.71 125.06L210.62 126.39C212.21 127.76 198.74 136.56 194.43 136.69C187.24 136.89 183.45 130.76 183.45 130.76L185.36 128.23L191.02 126.21L192.02 115.11L189.69 110.24L189.02 105.91L186.37 105.05L186.43 100.61L188.81 98.84L192.55 98.82L195.66 95.37L195.87 91.98L204.55 98.85L210.47 100.08L210.47 100.08Z" fill="#FFFFFF" fill-opacity="1.000000" fill-rule="nonzero"/>
		<path id="ag" d="M210.23 100.08C211.41 103.77 211.24 107.36 209.72 110.84C208.19 114.32 205.28 116.38 200.97 117L201.71 125.06L206.92 125.93" stroke="#1C1C1C" stroke-opacity="1.000000" stroke-width="2.000000" stroke-linecap="round"/>
		<path id="ah" d="M210.12 99.66C209.1 100.1 207.33 99.73 204.82 98.55C202.3 97.37 199.24 95.18 195.63 91.98C195.85 93.58 195.54 95.07 194.7 96.44C193.87 97.81 192.76 98.74 191.39 99.22C189.26 98.17 187.7 98.46 186.71 100.09C185.24 102.53 185.67 104.88 186.48 105.43C187.02 105.81 187.75 106.17 188.74 106.12C188.43 107.47 188.77 108.94 189.68 110.95C190.59 112.96 191.34 114.11 191.92 114.39L191.23 126.19L188.86 126.9" stroke="#1C1C1C" stroke-opacity="1.000000" stroke-width="2.000000" stroke-linecap="round"/>
		<path id="ai" d="M202.16 116.77C201.49 117.03 200.57 117.13 199.4 117.09C198.23 117.04 196.9 116.71 195.42 116.09" stroke="#1C1C1C" stroke-opacity="1.000000" stroke-width="2.000000" stroke-linecap="round"/>
		<path id="aj" d="M186.47 119.7C185.9 119.89 185.18 119.87 184.34 119.64C183.49 119.4 182.56 118.67 181.55 117.44" stroke="#1C1C1C" stroke-opacity="1.000000" stroke-width="2.000000" stroke-linecap="round"/>
		<path id="ak" d="M208.95 125.42C208.19 128.1 206.03 130.1 202.46 131.41C198.89 132.72 194.04 132.97 185.8 127.42C178.76 126.61 175.73 129.42 171.73 134.12C167.73 138.82 165.87 164.18 171.73 193.82L225.11 194.19C225.11 194.16 217.13 165.16 217.87 164.89L221.22 157.88L231.07 153.93C225.62 139.02 225.5 136.02 223.08 131.91C220.65 127.79 215.95 125.63 208.94 125.41L208.95 125.42Z" fill="#1C1C1C" fill-opacity="1.000000" fill-rule="nonzero"/>
		<path id="al" d="M214.4 142.3C216.32 147.03 216.9 151.59 216.12 155.97C215.34 160.36 213.83 163.47 211.57 165.33L210.23 180.01" stroke="#1C1C1C" stroke-opacity="1.000000" stroke-width="2.000000" stroke-linecap="round"/>
		<path id="Vector" d="M220.96 139.6C221.24 139.28 222.51 137.69 222.51 137.69L242.45 143.18L249.71 138.98L250.58 140.39C250.39 140.95 242.87 146.17 242.87 146.17L220.95 139.6L220.96 139.6Z" fill="#FFFFFF" fill-opacity="1.000000" fill-rule="nonzero"/>
		<path id="Vector" d="M222.51 137.69L242.45 143.18L249.71 138.98L250.58 140.39C250.39 140.95 242.87 146.17 242.87 146.17L220.95 139.6L220.96 139.6C221.24 139.28 222.51 137.69 222.51 137.69Z" stroke="#1C1C1C" stroke-opacity="1.000000" stroke-width="2.000000"/>
		<path id="Vector" d="M220.19 139.15L242.7 145.07L252.78 138.09L236.39 170.44L231.04 173.93C231.04 173.93 208.02 167.9 208.19 166.67C208.35 165.44 220.19 139.15 220.19 139.15L220.19 139.15Z" fill="url(#paint_linear_749_12270_0)" fill-opacity="1.000000" fill-rule="nonzero"/>
		<path id="Vector" d="M242.7 145.07L252.78 138.09L236.39 170.44L231.04 173.93C231.04 173.93 208.02 167.9 208.19 166.67C208.35 165.44 220.19 139.15 220.19 139.15L220.19 139.15L242.7 145.07Z" stroke="#1C1C1C" stroke-opacity="1.000000" stroke-width="2.000000"/>
		<path id="Vector" d="" fill="url(#paint_linear_749_12271_0)" fill-opacity="1.000000" fill-rule="nonzero"/>
		<path id="Vector" d="M242.19 146.11L231.32 173.04" stroke="#1C1C1C" stroke-opacity="1.000000" stroke-width="2.000000"/>
		<path id="am" d="M185.59 159.41L190.68 164.26L221.49 158.89L228.75 155.8L236.39 157.13L241.08 159.62L229.92 167.41L225.47 166.75C225.47 166.75 191.29 179.85 188.21 180.11C185.12 180.37 172.62 164.35 172.62 164.35C171.48 160.9 182.1 153.73 185.6 159.41L185.59 159.41Z" fill="#FFFFFF" fill-opacity="1.000000" fill-rule="nonzero"/>
		<path id="an" d="M187.1 159.92L190.81 164.29L221.1 159.11C225.08 157.1 227.97 156.08 229.77 156.04C232.47 155.98 241.81 158.62 240.8 159.99C240.12 160.91 236.5 163.38 229.92 167.41" stroke="#1C1C1C" stroke-opacity="1.000000" stroke-width="2.000000" stroke-linecap="round"/>
		<path id="ao" d="M170.58 162.03C175.81 169.85 184.47 180.95 189.08 179.86C191.84 179.41 202.1 176.28 225.46 166.75L229.81 167.56" stroke="#1C1C1C" stroke-opacity="1.000000" stroke-width="2.000000" stroke-linecap="round"/>
		<path id="ap" d="M231.72 208.9L232.49 216.57L232.59 290.92C232.8 296.2 233.68 299.12 235.22 299.66C236.71 300.2 247.93 299.86 268.88 298.67C269.09 298.66 269.28 298.55 269.39 298.37C269.58 298.08 269.49 297.68 269.19 297.49L246.18 284.49L253.02 212.19L248.55 203.38C246.27 199.65 230.39 202.75 231.72 208.9L231.72 208.9Z" fill="#FFFFFF" fill-opacity="1.000000" fill-rule="nonzero"/>
		<path id="aq" d="M232.51 221.63L232.6 290.92C232.81 296.2 233.68 299.12 235.22 299.66C236.72 300.2 247.94 299.86 268.89 298.67C269.09 298.66 269.28 298.55 269.4 298.37C269.58 298.08 269.5 297.68 269.2 297.49L246.18 284.49L250.33 240.65" stroke="#1C1C1C" stroke-opacity="1.000000" stroke-width="2.000000" stroke-linecap="round"/>
		<path id="ar" d="M230.11 217.94L234.35 219.05L282.63 273.5C286.32 277.28 288.93 278.85 290.44 278.23C291.91 277.62 300.01 269.85 314.76 254.92C314.9 254.78 314.97 254.57 314.93 254.37C314.87 254.02 314.54 253.79 314.19 253.84L286.11 258.69L244.02 205.09L232.95 200.44C228.59 200.76 224.04 216.29 230.11 217.94L230.11 217.94Z" fill="#FFFFFF" fill-opacity="1.000000" fill-rule="nonzero"/>
		<path id="as" d="M234.35 219.05L282.63 273.5C286.32 277.28 288.93 278.85 290.44 278.23C291.91 277.62 300.01 269.85 314.76 254.92C314.9 254.78 314.97 254.57 314.93 254.37C314.87 254.02 314.54 253.79 314.19 253.84L286.12 258.69L249.94 212.64" stroke="#1C1C1C" stroke-opacity="1.000000" stroke-width="2.000000" stroke-linecap="round"/>
		<path id="Vector" d="M254.77 213.34C243.55 204.44 231.5 213.77 228.63 221.92C225.75 230.07 216.4 210.89 216.4 210.89C216.4 210.89 223.43 195.55 238.7 198.66C257.09 199.81 265.99 222.24 254.77 213.35L254.77 213.34Z" fill="url(#paint_linear_749_12283_0)" fill-opacity="1.000000" fill-rule="nonzero"/>
		<path id="Vector" d="M254.34 210.6C253.48 208.54 244.37 202.01 235.6 210.94" stroke="#1C1C1C" stroke-opacity="1.000000" stroke-width="2.000000" stroke-linecap="round"/>
		<path id="Vector" d="M72.98 189.64L346.32 189.64L346.32 197.77L72.98 197.77L72.98 189.64Z" fill="#1C1C1C" fill-opacity="1.000000" fill-rule="evenodd"/>
		<path id="Vector" d="M72.98 183.91L346.32 183.91L346.32 189.64L72.98 189.64L72.98 183.91Z" fill="url(#paint_linear_749_12287_0)" fill-opacity="1.000000" fill-rule="evenodd"/>
		<path id="Vector" d="M171.05 197.77L158.53 197.77L158.53 317.23L171.05 317.23L171.05 197.77Z" fill="#FFFFFF" fill-opacity="1.000000" fill-rule="nonzero"/>
		<path id="Vector" d="M171.05 197.77L171.05 317.23L158.53 317.23L158.53 197.77L171.05 197.77Z" stroke="#1C1C1C" stroke-opacity="1.000000" stroke-width="2.000000" stroke-linejoin="round"/>
		<path id="Vector" d="M176.53 197.77L164.01 197.77L164.01 317.23L176.53 317.23L176.53 197.77Z" fill="#FFFFFF" fill-opacity="1.000000" fill-rule="nonzero"/>
		<path id="Vector" d="M176.53 197.77L176.53 317.23L164.01 317.23L164.01 197.77L176.53 197.77Z" stroke="#1C1C1C" stroke-opacity="1.000000" stroke-width="2.000000" stroke-linejoin="round"/>
		<path id="Vector" d="M86.09 197.77L73.57 197.77L73.57 317.23L86.09 317.23L86.09 197.77Z" fill="#FFFFFF" fill-opacity="1.000000" fill-rule="nonzero"/>
		<path id="Vector" d="M86.09 197.77L86.09 317.23L73.57 317.23L73.57 197.77L86.09 197.77Z" stroke="#1C1C1C" stroke-opacity="1.000000" stroke-width="2.000000" stroke-linejoin="round"/>
		<path id="Vector" d="M91.58 197.77L79.05 197.77L79.05 317.23L91.58 317.23L91.58 197.77Z" fill="#FFFFFF" fill-opacity="1.000000" fill-rule="nonzero"/>
		<path id="Vector" d="M91.58 197.77L91.58 317.23L79.05 317.23L79.05 197.77L91.58 197.77Z" stroke="#1C1C1C" stroke-opacity="1.000000" stroke-width="2.000000" stroke-linejoin="round"/>
		<path id="Vector" d="M339.56 197.77L327.03 197.77L327.03 317.23L339.56 317.23L339.56 197.77Z" fill="#FFFFFF" fill-opacity="1.000000" fill-rule="nonzero"/>
		<path id="Vector" d="M339.56 197.77L339.56 317.23L327.03 317.23L327.03 197.77L339.56 197.77Z" stroke="#1C1C1C" stroke-opacity="1.000000" stroke-width="2.000000" stroke-linejoin="round"/>
		<path id="Vector" d="M345.04 197.77L332.51 197.77L332.51 317.23L345.04 317.23L345.04 197.77Z" fill="#FFFFFF" fill-opacity="1.000000" fill-rule="nonzero"/>
		<path id="Vector" d="M345.04 197.77L345.04 317.23L332.51 317.23L332.51 197.77L345.04 197.77Z" stroke="#1C1C1C" stroke-opacity="1.000000" stroke-width="2.000000" stroke-linejoin="round"/>
		<path id="Vector" d="M254.61 197.77L242.08 197.77L242.08 317.23L254.61 317.23L254.61 197.77Z" fill="#FFFFFF" fill-opacity="1.000000" fill-rule="nonzero"/>
		<path id="Vector" d="M254.61 197.77L254.61 317.23L242.08 317.23L242.08 197.77L254.61 197.77Z" stroke="#1C1C1C" stroke-opacity="1.000000" stroke-width="2.000000" stroke-linejoin="round"/>
		<path id="Vector" d="M260.09 197.77L247.56 197.77L247.56 317.23L260.09 317.23L260.09 197.77Z" fill="#FFFFFF" fill-opacity="1.000000" fill-rule="nonzero"/>
		<path id="Vector" d="M260.09 197.77L260.09 317.23L247.56 317.23L247.56 197.77L260.09 197.77Z" stroke="#1C1C1C" stroke-opacity="1.000000" stroke-width="2.000000" stroke-linejoin="round"/>
		<path id="Vector" d="M109.65 199.61C114.18 200.51 131.15 203.37 129.92 222.11C128.69 240.86 129.6 237.68 129.6 237.68" stroke="#1C1C1C" stroke-opacity="1.000000" stroke-width="2.000000" stroke-linejoin="round" stroke-linecap="round"/>
		<path id="Vector" d="M110.98 184.22L114.62 181.38L125.53 179.87L143.23 180L131.8 182.53L130.82 184.22L110.98 184.22Z" fill="#FFFFFF" fill-opacity="1.000000" fill-rule="nonzero"/>
		<path id="Vector" d="M114.62 181.38L125.53 179.87L143.23 180L131.8 182.53L130.82 184.22L110.98 184.22L114.62 181.38Z" stroke="#1C1C1C" stroke-opacity="1.000000" stroke-width="2.000000" stroke-linejoin="round"/>
		<path id="Vector" d="M143.23 180L144.21 184.22L130.82 184.22L131.8 182.53L143.23 180Z" fill="#FFFFFF" fill-opacity="1.000000" fill-rule="nonzero"/>
		<path id="Vector" d="M144.21 184.22L130.82 184.22L131.8 182.53L143.23 180L144.21 184.22Z" stroke="#1C1C1C" stroke-opacity="1.000000" stroke-width="2.000000" stroke-linejoin="round"/>
		<path id="Vector" d="M143.23 180C144.1 180.02 152.93 181.38 152.93 181.38L154.28 184.22L144.21 184.22L143.23 180Z" fill="#FFFFFF" fill-opacity="1.000000" fill-rule="nonzero"/>
		<path id="Vector" d="M152.93 181.38L154.28 184.22L144.21 184.22L143.23 180C144.1 180.02 152.93 181.38 152.93 181.38Z" stroke="#1C1C1C" stroke-opacity="1.000000" stroke-width="2.000000" stroke-linejoin="round"/>
		<path id="Vector" d="M109.4 183.63L156.22 183.63L156.22 185.35L109.4 185.35L109.4 183.63Z" fill="url(#paint_linear_749_12304_0)" fill-opacity="1.000000" fill-rule="evenodd"/>
		<path id="Vector" d="M109.4 185.35C109.81 185.14 156.22 185.35 156.22 185.35M109.87 186.21L109.86 186.24C109.37 186.5 108.77 186.31 108.52 185.82C108.26 185.32 108.44 184.73 108.94 184.47L108.97 184.48L109.87 186.21ZM156.2 184.37L156.22 184.35C156.78 184.36 157.22 184.8 157.22 185.36C157.22 185.92 156.77 186.36 156.21 186.35L156.19 186.33L156.2 184.37Z" fill="#FFFFFF" fill-opacity="1.000000" fill-rule="nonzero"/>
		<path id="Vector" d="M109.4 185.35C109.81 185.14 156.22 185.35 156.22 185.35" stroke="#1C1C1C" stroke-opacity="1.000000" stroke-width="2.000000" stroke-linejoin="round" stroke-linecap="round"/>
		<path id="Vector" d="M268.45 184.72C268.46 186.35 258.65 186.42 258.64 184.78L257.04 163.71L269.79 163.63L268.45 184.72Z" fill="url(#paint_linear_749_12307_0)" fill-opacity="1.000000" fill-rule="nonzero"/>
		<path id="Vector" d="M270.35 165.25L256.5 165.34L256.96 160.78C256.96 160.2 269.82 160.12 269.82 160.7L270.34 165.25L270.35 165.25Z" fill="url(#paint_linear_749_12308_0)" fill-opacity="1.000000" fill-rule="nonzero"/>
		<path id="Vector" d="M270.69 166.31L256.17 166.4C255.95 166.4 255.79 166.21 255.82 166L255.95 164.96C255.97 164.78 256.12 164.65 256.3 164.65L270.53 164.56C270.71 164.56 270.86 164.69 270.89 164.86L271.03 165.9C271.06 166.11 270.9 166.3 270.69 166.3L270.69 166.31Z" fill="url(#paint_linear_749_12309_0)" fill-opacity="1.000000" fill-rule="nonzero"/>
		<path id="Vector" d="M257.74 166.3L268.87 166.23" stroke="#1C1C1C" stroke-opacity="1.000000" stroke-width="2.000000" stroke-linejoin="round" stroke-linecap="round"/>
		<path id="Vector" d="M256.81 164.63L269.98 164.55" stroke="#1C1C1C" stroke-opacity="1.000000" stroke-width="2.000000" stroke-linejoin="round" stroke-linecap="round"/>
		<path id="Vector" d="M268.75 179.48L258.24 179.55C258.11 179.55 258 179.45 257.99 179.32L257.41 171.08C257.4 170.94 257.51 170.82 257.66 170.81L269.23 170.74C269.37 170.74 269.49 170.86 269.48 171.01L269 179.24C269 179.37 268.89 179.48 268.75 179.48Z" fill="#1C1C1C" fill-opacity="1.000000" fill-rule="nonzero"/>
		<path id="Vector" d="M326.4 183.69L311.84 183.69L311.84 174.57L326.4 174.57L326.4 183.69Z" fill="url(#paint_linear_749_12315_0)" fill-opacity="1.000000" fill-rule="evenodd"/>
		<path id="Vector" d="M277.9 174.57L311.84 174.57L311.84 183.69L277.9 183.69L277.9 174.57Z" fill="#1C1C1C" fill-opacity="1.000000" fill-rule="evenodd"/>
		<path id="Vector" d="M283.14 176.85L301.79 176.85L301.79 181.78L283.14 181.78L283.14 176.85Z" fill="#FFFFFF" fill-opacity="1.000000" fill-rule="evenodd"/>
		<path id="Vector" d="M304.99 176.85L308.74 176.85L308.74 181.78L304.99 181.78L304.99 176.85Z" fill="#FFFFFF" fill-opacity="1.000000" fill-rule="evenodd"/>
		<path id="Vector" d="M323.57 174.17L310.79 174.17L310.79 166.52L323.57 166.52L323.57 174.17Z" fill="url(#paint_linear_749_12321_0)" fill-opacity="1.000000" fill-rule="evenodd"/>
		<path id="Vector" d="M281.04 166.51L310.79 166.51L310.79 174.16L281.04 174.16L281.04 166.51Z" fill="url(#paint_linear_749_12322_0)" fill-opacity="1.000000" fill-rule="evenodd"/>
		<path id="Vector" d="M310.8 166.51L310.8 174.17" stroke="#1C1C1C" stroke-opacity="1.000000" stroke-width="2.000000" stroke-linejoin="round" stroke-linecap="round"/>
		<path id="Vector" d="M287.16 168.17L300.47 168.17L300.47 172.82L287.16 172.82L287.16 168.17Z" fill="#1C1C1C" fill-opacity="1.000000" fill-rule="evenodd"/>
		<path id="Vector" d="M305.62 167.89L307.26 167.89L307.26 173.09L305.62 173.09L305.62 167.89Z" fill="#1C1C1C" fill-opacity="1.000000" fill-rule="evenodd"/>
		<path id="Vector" d="M281.04 166.51L281.04 174.17L310.79 174.17L323.57 174.17L323.57 166.51L310.79 166.51L281.04 166.51Z" stroke="#1C1C1C" stroke-opacity="1.000000" stroke-width="2.000000" stroke-linejoin="round"/>
		<path id="Vector" d="M312.81 168.06L322.1 168.06" stroke="#1C1C1C" stroke-opacity="1.000000" stroke-width="2.000000" stroke-linejoin="round" stroke-linecap="round"/>
		<path id="Vector" d="M312.81 169.94L322.1 169.94" stroke="#1C1C1C" stroke-opacity="1.000000" stroke-width="2.000000" stroke-linejoin="round" stroke-linecap="round"/>
		<path id="Vector" d="M312.81 171.82L322.1 171.82" stroke="#1C1C1C" stroke-opacity="1.000000" stroke-width="2.000000" stroke-linejoin="round" stroke-linecap="round"/>
		<path id="Vector" d="M313.75 177.14L324.92 177.14" stroke="#1C1C1C" stroke-opacity="1.000000" stroke-width="2.000000" stroke-linejoin="round" stroke-linecap="round"/>
		<path id="Vector" d="M313.75 179.02L324.92 179.02" stroke="#1C1C1C" stroke-opacity="1.000000" stroke-width="2.000000" stroke-linejoin="round" stroke-linecap="round"/>
		<path id="Vector" d="M313.75 180.9L324.92 180.9" stroke="#1C1C1C" stroke-opacity="1.000000" stroke-width="2.000000" stroke-linejoin="round" stroke-linecap="round"/>
	</g>
</svg>
