<svg width="447.000000" height="442.000000" viewBox="0 0 447 442" fill="none" xmlns="http://www.w3.org/2000/svg" xmlns:xlink="http://www.w3.org/1999/xlink">
	<desc>
			Created with Pixso.
	</desc>
	<defs>
		<clipPath id="clip757_3053">
			<rect id="Illustration/Coffee-Break" width="447.000000" height="442.000000" fill="white" fill-opacity="0"/>
		</clipPath>
		<linearGradient id="paint_linear_757_3030_0" x1="317.009247" y1="139.280579" x2="287.845703" y2="139.280579" gradientUnits="userSpaceOnUse">
			<stop stop-color="#FCE000"/>
			<stop offset="1.000000" stop-color="#EF534F"/>
		</linearGradient>
		<linearGradient id="paint_linear_757_3031_0" x1="316.153351" y1="121.714081" x2="287.185547" y2="121.714081" gradientUnits="userSpaceOnUse">
			<stop stop-color="#FCE000"/>
			<stop offset="1.000000" stop-color="#EF534F"/>
		</linearGradient>
		<linearGradient id="paint_linear_757_3032_0" x1="318.015533" y1="125.531540" x2="286.417969" y2="125.531540" gradientUnits="userSpaceOnUse">
			<stop stop-color="#FCE000"/>
			<stop offset="1.000000" stop-color="#EF534F"/>
		</linearGradient>
		<linearGradient id="paint_linear_757_3036_0" x1="256.350464" y1="123.483505" x2="171.455063" y2="123.483505" gradientUnits="userSpaceOnUse">
			<stop stop-color="#FCE000"/>
			<stop offset="1.000000" stop-color="#EF534F"/>
		</linearGradient>
		<linearGradient id="paint_linear_757_3043_0" x1="239.095276" y1="148.665161" x2="125.464851" y2="148.665161" gradientUnits="userSpaceOnUse">
			<stop stop-color="#FCE000"/>
			<stop offset="1.000000" stop-color="#EF534F"/>
		</linearGradient>
		<linearGradient id="paint_linear_757_3047_0" x1="153.085129" y1="126.167496" x2="104.017578" y2="126.167496" gradientUnits="userSpaceOnUse">
			<stop stop-color="#FCE000"/>
			<stop offset="1.000000" stop-color="#EF534F"/>
		</linearGradient>
	</defs>
	<rect id="Illustration/Coffee-Break" width="447.000000" height="442.000000" fill="#FFFFFF" fill-opacity="0"/>
	<g clip-path="url(#clip757_3053)">
		<path id="Oval" d="M206.5 388.83C298.71 388.83 373.47 271.39 373.47 188.41C373.47 105.43 298.71 38.16 206.5 38.16C114.28 38.16 39.52 105.43 39.52 188.41C39.52 271.39 114.28 388.83 206.5 388.83Z" fill="#FFF5A9" fill-opacity="1.000000" fill-rule="nonzero"/>
		<path id="Vector" d="M321.45 146.4L336.28 146.4L336.28 263.42L321.45 263.42L321.45 146.4Z" fill="#FFFFFF" fill-opacity="1.000000" fill-rule="evenodd"/>
		<path id="Vector" d="M321.45 150.29L321.45 146.4L336.28 146.4L336.28 150.58" stroke="#1C1C1C" stroke-opacity="1.000000" stroke-width="2.230000" stroke-linejoin="round" stroke-linecap="round"/>
		<path id="Vector" d="M336.28 232.51L336.28 263.42L321.45 263.42L321.45 232.05" stroke="#1C1C1C" stroke-opacity="1.000000" stroke-width="2.230000" stroke-linejoin="round" stroke-linecap="round"/>
		<path id="Vector" d="M76.73 146.4L91.56 146.4L91.56 263.42L76.73 263.42L76.73 146.4Z" fill="#FFFFFF" fill-opacity="1.000000" fill-rule="evenodd"/>
		<path id="Vector" d="M76.73 150.29L76.73 146.4L91.55 146.4L91.55 150.58" stroke="#1C1C1C" stroke-opacity="1.000000" stroke-width="2.230000" stroke-linejoin="round" stroke-linecap="round"/>
		<path id="Vector" d="M91.55 232.51L91.55 263.42L76.73 263.42L76.73 232.05" stroke="#1C1C1C" stroke-opacity="1.000000" stroke-width="2.230000" stroke-linejoin="round" stroke-linecap="round"/>
		<path id="Vector" d="M40.77 152.42L368.87 152.42L368.87 174.85L40.77 174.85L40.77 152.42Z" fill="#1C1C1C" fill-opacity="1.000000" fill-rule="evenodd"/>
		<path id="Vector" d="M40.77 179.1L368.87 179.1L368.87 201.54L40.77 201.54L40.77 179.1Z" fill="#1C1C1C" fill-opacity="1.000000" fill-rule="evenodd"/>
		<path id="Vector" d="M40.77 205.79L368.87 205.79L368.87 228.22L40.77 228.22L40.77 205.79Z" fill="#1C1C1C" fill-opacity="1.000000" fill-rule="evenodd"/>
		<path id="Vector" d="M42.93 245.95L371.03 245.95L371.03 255.27L42.93 255.27L42.93 245.95Z" fill="#FFFFFF" fill-opacity="1.000000" fill-rule="evenodd"/>
		<path id="Vector" d="M42.93 249.64L42.93 245.95L371.04 245.95L371.04 249.3" stroke="#1C1C1C" stroke-opacity="1.000000" stroke-width="2.230000" stroke-linejoin="round" stroke-linecap="round"/>
		<path id="Vector" d="M41.75 252.29L372.22 252.29L372.22 265.01L41.75 265.01L41.75 252.29Z" fill="#1C1C1C" fill-opacity="1.000000" fill-rule="evenodd"/>
		<path id="Vector" d="M58.46 354.41L50.32 354.41L61.73 262.85L77.32 262.85L58.46 354.41Z" fill="#1C1C1C" fill-opacity="1.000000" fill-rule="nonzero"/>
		<path id="Vector" d="M86.48 331.51L78.35 331.51L89.76 262.85L105.35 262.85L86.48 331.51Z" fill="#1C1C1C" fill-opacity="1.000000" fill-rule="nonzero"/>
		<path id="Vector" d="M357.84 354.41L365.97 354.41L354.56 262.85L338.97 262.85L357.84 354.41Z" fill="#1C1C1C" fill-opacity="1.000000" fill-rule="nonzero"/>
		<path id="Vector" d="M329.81 331.51L337.95 331.51L326.54 262.85L310.95 262.85L329.81 331.51Z" fill="#1C1C1C" fill-opacity="1.000000" fill-rule="nonzero"/>
		<path id="Path-32" d="M236.6 364.13C237.25 368.71 238.58 380.61 238.77 381.94C239.05 383.94 239.28 404.24 241.13 404.48C242.98 404.73 294.19 401.97 287.2 397.95C280.21 393.93 258.3 382.57 257.72 378.54L256.38 362.87L236.6 364.13Z" fill="#FFFFFF" fill-opacity="1.000000" fill-rule="nonzero"/>
		<path id="Path-32" d="M237.5 373.06L238.75 381.94C239.04 383.94 239.26 404.24 241.11 404.48C242.96 404.73 294.17 401.98 287.18 397.96C280.19 393.94 258.28 382.57 257.71 378.54L257.54 375.38" stroke="#1C1C1C" stroke-opacity="1.000000" stroke-width="2.230000" stroke-linejoin="round" stroke-linecap="round"/>
		<path id="Path-33" d="M299.63 348.78C304.09 361.04 309.23 375.93 309.92 379.29C310.82 383.41 312 387.45 313.45 391.41L357.08 378.69C357.34 378.62 357.58 378.46 357.75 378.24C357.92 378.02 358.01 377.75 358.02 377.48C358.03 377.2 357.96 376.93 357.8 376.7C357.65 376.47 357.43 376.29 357.17 376.19C334.06 367.41 322.21 362.02 321.63 360.02L316.51 342.28L299.63 348.78Z" fill="#FFFFFF" fill-opacity="1.000000" fill-rule="nonzero"/>
		<path id="Path-33" d="M302.2 355.88C306.66 368.14 309.23 375.94 309.92 379.29C310.82 383.4 312 387.45 313.45 391.41L357.08 378.69C357.34 378.62 357.58 378.46 357.75 378.24C357.92 378.02 358.01 377.75 358.02 377.48C358.03 377.2 357.96 376.93 357.8 376.7C357.65 376.47 357.43 376.29 357.17 376.19C334.06 367.41 322.21 362.02 321.63 360.02L320.68 355.75" stroke="#1C1C1C" stroke-opacity="1.000000" stroke-width="2.230000" stroke-linejoin="round" stroke-linecap="round"/>
		<path id="Vector" d="M207.76 140.83C213.78 143.62 228.6 148.7 228.6 148.7L284.99 151.45C302.61 151.05 312.89 134.2 309.9 130.75C306.91 127.3 290.64 134.1 286.03 137.28C286.03 137.28 259.17 135.48 236.18 129.41L226.01 124.7L207.76 140.83Z" fill="#FFFFFF" fill-opacity="1.000000" fill-rule="nonzero"/>
		<path id="Vector" d="M207.76 140.83C213.78 143.62 228.6 148.7 228.6 148.7L284.99 151.45C302.61 151.05 312.89 134.2 309.9 130.75C306.91 127.3 290.67 133.82 286.07 136.99C286.07 136.99 259.17 135.48 236.18 129.41" stroke="#1C1C1C" stroke-opacity="1.000000" stroke-width="2.230000" stroke-linejoin="round" stroke-linecap="round"/>
		<path id="Vector" d="M309.32 153.97C309.65 156.47 294.64 158.43 294.31 155.94L287.84 124.02L307.35 121.46L309.32 153.97Z" fill="url(#paint_linear_757_3030_0)" fill-opacity="1.000000" fill-rule="nonzero"/>
		<path id="Vector" d="M308.52 123.83L287.33 126.61L287.18 119.56C287.06 118.68 306.69 116.1 306.83 116.99L308.52 123.83Z" fill="url(#paint_linear_757_3031_0)" fill-opacity="1.000000" fill-rule="nonzero"/>
		<path id="Vector" d="M309.23 125.41L287.03 128.32C286.95 128.33 286.87 128.32 286.8 128.3C286.72 128.27 286.65 128.23 286.6 128.18C286.54 128.13 286.49 128.06 286.46 127.99C286.43 127.92 286.41 127.84 286.41 127.76L286.41 126.14C286.41 126.01 286.46 125.87 286.55 125.77C286.64 125.67 286.76 125.6 286.89 125.58L308.64 122.73C308.76 122.72 308.9 122.75 309.01 122.82C309.11 122.9 309.19 123 309.23 123.13L309.66 124.7C309.68 124.77 309.69 124.85 309.68 124.93C309.67 125.01 309.65 125.08 309.61 125.15C309.57 125.22 309.51 125.27 309.45 125.32C309.38 125.36 309.31 125.4 309.23 125.41Z" fill="url(#paint_linear_757_3032_0)" fill-opacity="1.000000" fill-rule="nonzero"/>
		<path id="Vector" d="M289.42 127.85L306.43 125.62" stroke="#1C1C1C" stroke-opacity="1.000000" stroke-width="1.115000" stroke-linejoin="round" stroke-linecap="round"/>
		<path id="Vector" d="M287.67 125.46L307.81 122.82" stroke="#1C1C1C" stroke-opacity="1.000000" stroke-width="1.115000" stroke-linejoin="round" stroke-linecap="round"/>
		<path id="Vector" d="M308.78 145.91L292.71 148.01C292.61 148.02 292.51 148 292.43 147.94C292.35 147.89 292.3 147.8 292.28 147.7L289.82 135.22C289.81 135.16 289.81 135.11 289.82 135.06C289.84 135.01 289.86 134.96 289.89 134.92C289.92 134.87 289.96 134.84 290.01 134.81C290.05 134.78 290.1 134.77 290.15 134.76L307.84 132.44C307.89 132.43 307.94 132.44 308 132.45C308.05 132.47 308.09 132.49 308.14 132.53C308.18 132.56 308.21 132.6 308.23 132.65C308.26 132.7 308.27 132.75 308.27 132.8L309.12 145.48C309.13 145.58 309.1 145.68 309.04 145.76C308.97 145.84 308.88 145.89 308.78 145.91Z" fill="#1C1C1C" fill-opacity="1.000000" fill-rule="nonzero"/>
		<path id="Path-24" d="M194.48 93.4C203.4 97.17 222.08 108.06 233.98 125.91C229.94 133.32 219.84 142.39 205.36 153.55L171.45 120.2L194.48 93.4Z" fill="url(#paint_linear_757_3036_0)" fill-opacity="1.000000" fill-rule="nonzero"/>
		<path id="Path-31" d="M131.87 206.17C131.87 206.17 130.52 249.16 138.62 254.52C146.73 259.88 194.5 267.54 198.22 273.73C201.94 279.93 229.82 365.75 229.82 365.75L267.65 361.37C267.65 361.37 243.81 272.22 236.6 261.69C229.39 251.15 230.65 252.52 230.65 252.52C230.65 252.52 241.11 257.49 247.93 264.93C254.75 272.36 295.35 352.2 295.35 352.2L329.36 344.34C329.36 344.34 297.64 258.34 288.35 240.99C279.05 223.63 206.12 203.13 206.12 203.13L131.87 206.17Z" fill="#1C1C1C" fill-opacity="1.000000" fill-rule="nonzero"/>
		<path id="Path-36" d="M150.48 90.21L158.87 88.04L161.25 71.32L158.32 67.63L157.12 62.38L153.15 61.82L151.28 58L152.51 54.05L153.8 52.9L152.38 45.89L178.94 44.88L180.46 45.8L183.72 52.8L185.32 60.66L183.43 67.24L180.24 71.22L175.78 73.88L174.16 73.65L172.19 89.11L183.68 89.04L172.68 100.63L149.92 100.35L150.48 90.21Z" fill="#FFFFFF" fill-opacity="1.000000" fill-rule="nonzero"/>
		<path id="Path-20" d="M153.8 89.13C155.86 88.65 157.55 88.28 158.87 88.01C159.32 82.98 160.11 77.41 161.24 71.29C160.07 70.23 159.08 68.99 158.32 67.6C157.86 66.6 157.47 64.85 157.15 62.37C152.86 62.11 150.96 60.25 151.45 56.8C151.94 53.35 154.09 52.09 157.92 53.01" stroke="#1C1C1C" stroke-opacity="1.000000" stroke-width="2.230000" stroke-linejoin="round" stroke-linecap="round"/>
		<path id="Path-21" d="M182.07 49.71C184.84 54.8 185.82 59.08 185.01 62.54C182.94 69.52 179.13 73.34 173.6 74.02L172.17 89.11L177.96 89.03" stroke="#1C1C1C" stroke-opacity="1.000000" stroke-width="2.230000" stroke-linejoin="round" stroke-linecap="round"/>
		<path id="Path-22" d="M153.36 50.75C155.1 50.06 157.01 49.94 158.82 50.4" stroke="#1C1C1C" stroke-opacity="1.000000" stroke-width="2.230000" stroke-linejoin="round" stroke-linecap="round"/>
		<path id="Path-23" d="M152.58 48.84C155.52 47.98 158 47.69 160 47.97C160.32 47.09 160.69 46.1 161.12 45C164.89 50.25 171.34 50.71 180.47 46.37C194.16 39.87 181.2 16.26 167.39 24.07C162.42 26.97 159.54 29.5 158.77 31.63C155.08 31.63 152.76 32.64 151.81 34.67C149.98 37.32 150.24 42.05 152.58 48.84Z" fill="#1C1C1C" fill-opacity="1.000000" fill-rule="nonzero"/>
		<path id="Path-24" d="M130.64 172.45L128.8 205.23C145.64 210.31 162.99 210.54 172.4 210.08C181.82 209.63 209.15 201.38 209.15 201.38L204.55 167.84C204.55 167.84 212.14 104.53 206.23 100.03C200.31 95.52 182.93 86.78 181.93 87.09C180.93 87.4 177.44 95.66 168.26 96.6C159.09 97.54 150.74 88.89 150.1 88.97C149.45 89.05 125.86 95.61 125.48 95.83C125.1 96.05 130.64 172.45 130.64 172.45Z" fill="url(#paint_linear_757_3043_0)" fill-opacity="1.000000" fill-rule="nonzero"/>
		<path id="Vector" d="M205.07 148.99C204.67 138.75 202.42 125.12 200.23 123.69" stroke="#1C1C1C" stroke-opacity="1.000000" stroke-width="2.230000" stroke-linejoin="round" stroke-linecap="round"/>
		<path id="Vector" d="M129.25 158.3C130.72 175.64 152.85 218.17 154.73 217.75C161.67 218.43 177.73 230.1 177.62 235.29C177.32 238.33 160.26 241.5 148.94 230.06C138.3 223.04 103.49 164.52 106.57 153.74L106.85 147.78L130.64 152.95L129.25 158.3Z" fill="#FFFFFF" fill-opacity="1.000000" fill-rule="nonzero"/>
		<path id="Vector" d="M106.56 153.71C103.49 164.5 138.3 223.02 148.93 230.04C160.26 241.48 178.29 237.52 178.59 234.5C178.7 229.3 161.42 218.7 154.48 218.02C152.61 218.43 130.71 175.65 129.25 158.3" stroke="#1C1C1C" stroke-opacity="1.000000" stroke-width="2.230000" stroke-linejoin="round" stroke-linecap="round"/>
		<path id="Path-24" d="M140.06 127.21C138.99 124.98 132.19 94.63 125.48 95.83C118.84 97.81 102.93 150.88 104.07 151.19C105.21 151.51 128.1 156.44 130.52 156.53C132.93 156.62 141.13 129.44 140.06 127.21Z" fill="url(#paint_linear_757_3047_0)" fill-opacity="1.000000" fill-rule="nonzero"/>
		<path id="Vector" d="M138.21 124.04C139.84 128.74 132.79 152.27 132.79 152.27" stroke="#1C1C1C" stroke-opacity="1.000000" stroke-width="2.230000" stroke-linejoin="round" stroke-linecap="round"/>
		<path id="Vector" d="M288.85 135.45C291.02 133.34 303.47 130.49 300 135.62C298.96 137.13 297.59 138.37 295.99 139.25C294.39 140.12 292.61 140.61 290.78 140.67M289.63 136.22L289.62 136.25C289.18 136.68 288.48 136.67 288.05 136.22C287.61 135.77 287.62 135.08 288.07 134.64L288.1 134.64L289.63 136.22ZM290.84 141.77L290.82 141.79C290.2 141.81 289.69 141.34 289.67 140.71C289.65 140.09 290.12 139.58 290.75 139.56L290.77 139.58L290.84 141.77Z" fill="#FFFFFF" fill-opacity="1.000000" fill-rule="nonzero"/>
		<path id="Vector" d="M288.85 135.45C291.02 133.34 303.47 130.49 300 135.62C298.96 137.13 297.59 138.37 295.99 139.25C294.39 140.12 292.61 140.61 290.78 140.67" stroke="#1C1C1C" stroke-opacity="1.000000" stroke-width="2.230000" stroke-linejoin="round" stroke-linecap="round"/>
		<path id="Vector" d="M310.5 405.62L378.62 405.62" stroke="#1C1C1C" stroke-opacity="1.000000" stroke-width="2.230000" stroke-linejoin="round" stroke-linecap="round"/>
		<path id="Vector" d="M226.19 405.62L293.23 405.62" stroke="#1C1C1C" stroke-opacity="1.000000" stroke-width="2.230000" stroke-linejoin="round" stroke-linecap="round"/>
	</g>
</svg>
