<svg width="216" height="48" viewBox="0 0 216 48" fill="none" xmlns="http://www.w3.org/2000/svg">
<path d="M6.24 25.08L2.54 31H0.44L4.44 24.76C3.93333 24.5867 3.45333 24.3467 3 24.04C2.56 23.7333 2.2 23.3133 1.92 22.78C1.64 22.2467 1.5 21.56 1.5 20.72C1.5 19.4267 1.94667 18.44 2.84 17.76C3.73333 17.0667 5.06667 16.72 6.84 16.72H10.84V31H9.04V25.08H6.24ZM6.88 18.26C6.12 18.26 5.48 18.3467 4.96 18.52C4.44 18.6933 4.04 18.9667 3.76 19.34C3.49333 19.7133 3.36 20.2 3.36 20.8C3.36 21.68 3.65333 22.36 4.24 22.84C4.82667 23.32 5.73333 23.56 6.96 23.56H9.04V18.26H6.88ZM16.2334 20.28V24.74H22.0534V20.28H23.8134V31H22.0534V26.22H16.2334V31H14.4734V20.28H16.2334ZM35.1678 20.28V29.52H36.7278V34.72H35.0278V31H27.5678V34.72H25.8878V29.52H26.7478C27.3611 28.6667 27.8678 27.74 28.2678 26.74C28.6811 25.7267 28.9878 24.6733 29.1878 23.58C29.4011 22.4733 29.5145 21.3733 29.5278 20.28H35.1678ZM31.0878 21.66C31.0345 22.5667 30.8945 23.5067 30.6678 24.48C30.4411 25.44 30.1478 26.36 29.7878 27.24C29.4411 28.12 29.0345 28.88 28.5678 29.52H33.4678V21.66H31.0878ZM42.9689 20.08C43.8889 20.08 44.6756 20.28 45.3289 20.68C45.9956 21.08 46.5022 21.6467 46.8489 22.38C47.2089 23.1 47.3889 23.9467 47.3889 24.92V25.98H40.0489C40.0756 27.1933 40.3822 28.12 40.9689 28.76C41.5689 29.3867 42.4022 29.7 43.4689 29.7C44.1489 29.7 44.7489 29.64 45.2689 29.52C45.8022 29.3867 46.3489 29.2 46.9089 28.96V30.5C46.3622 30.74 45.8222 30.9133 45.2889 31.02C44.7556 31.14 44.1222 31.2 43.3889 31.2C42.3756 31.2 41.4756 30.9933 40.6889 30.58C39.9156 30.1667 39.3089 29.5533 38.8689 28.74C38.4422 27.9133 38.2289 26.9067 38.2289 25.72C38.2289 24.5467 38.4222 23.54 38.8089 22.7C39.2089 21.86 39.7622 21.2133 40.4689 20.76C41.1889 20.3067 42.0222 20.08 42.9689 20.08ZM42.9489 21.52C42.1089 21.52 41.4422 21.7933 40.9489 22.34C40.4689 22.8733 40.1822 23.62 40.0889 24.58H45.5489C45.5489 23.9667 45.4556 23.4333 45.2689 22.98C45.0822 22.5267 44.7956 22.1733 44.4089 21.92C44.0356 21.6533 43.5489 21.52 42.9489 21.52ZM56.458 20.28H58.378L53.798 25.44L58.758 31H56.718L51.878 25.56V31H50.118V20.28H51.878V25.48L56.458 20.28ZM64.6133 31.2C63.6666 31.2 62.8199 31.0067 62.0733 30.62C61.3399 30.2333 60.7599 29.6333 60.3333 28.82C59.9199 28.0067 59.7133 26.9667 59.7133 25.7C59.7133 24.38 59.9333 23.3067 60.3733 22.48C60.8133 21.6533 61.4066 21.0467 62.1533 20.66C62.9133 20.2733 63.7733 20.08 64.7333 20.08C65.2799 20.08 65.8066 20.14 66.3133 20.26C66.8199 20.3667 67.2333 20.5 67.5533 20.66L67.0133 22.12C66.6933 22 66.3199 21.8867 65.8933 21.78C65.4666 21.6733 65.0666 21.62 64.6933 21.62C63.9733 21.62 63.3799 21.7733 62.9133 22.08C62.4466 22.3867 62.0999 22.84 61.8733 23.44C61.6466 24.04 61.5333 24.7867 61.5333 25.68C61.5333 26.5333 61.6466 27.26 61.8733 27.86C62.0999 28.46 62.4399 28.9133 62.8933 29.22C63.3466 29.5267 63.9133 29.68 64.5933 29.68C65.1799 29.68 65.6933 29.62 66.1333 29.5C66.5866 29.38 66.9999 29.2333 67.3733 29.06V30.62C67.0133 30.8067 66.6133 30.9467 66.1733 31.04C65.7466 31.1467 65.2266 31.2 64.6133 31.2Z" fill="#1C1C1C"/>
<g clip-path="url(#clip0_741_4554)">
<circle cx="100" cy="24" r="24" fill="#FCE000"/>
<path d="M86.4348 17.2186L99.2898 14.4639C99.758 14.3636 100.242 14.3636 100.71 14.4639L113.565 17.2186V32.5279C113.565 33.8642 113.034 35.1458 112.09 36.0907C111.145 37.0356 109.863 37.5664 108.527 37.5664H91.4733C90.137 37.5664 88.8555 37.0356 87.9106 36.0907C86.9657 35.1458 86.4348 33.8642 86.4348 32.5279V17.2186Z" fill="white"/>
<path d="M87.4038 16.249L99.2375 13.5185C99.7393 13.4027 100.261 13.4027 100.763 13.5185L112.596 16.249V32.2366C112.596 33.393 112.137 34.502 111.319 35.3197C110.502 36.1374 109.393 36.5968 108.236 36.5968H91.7641C90.6076 36.5968 89.4986 36.1374 88.6809 35.3197C87.8632 34.502 87.4038 33.393 87.4038 32.2366V16.249Z" fill="white"/>
<path d="M91.4733 10.4346C90.137 10.4346 88.8555 10.9654 87.9106 11.9103C86.9657 12.8552 86.4348 14.1368 86.4348 15.4731V17.2172H113.565V15.4731C113.565 14.1368 113.034 12.8552 112.09 11.9103C111.145 10.9654 109.863 10.4346 108.527 10.4346H91.4733Z" fill="url(#paint0_linear_741_4554)"/>
<rect x="90.6086" y="18.7822" width="3.65217" height="3.65217" rx="0.521739" fill="#CFE2FF"/>
<rect x="98.4348" y="18.7822" width="3.65217" height="3.65217" rx="0.521739" fill="#CFE2FF"/>
<rect x="106.261" y="18.7822" width="3.65217" height="3.65217" rx="0.521739" fill="#CFE2FF"/>
<rect x="90.6086" y="25.5645" width="3.65217" height="3.65217" rx="0.521739" fill="#CFE2FF"/>
<rect x="98.4348" y="25.5645" width="3.65217" height="3.65217" rx="0.521739" fill="#CFE2FF"/>
<rect x="106.261" y="25.5645" width="3.65217" height="3.65217" rx="0.521739" fill="url(#paint1_linear_741_4554)"/>
<rect x="90.6086" y="32.3477" width="3.65217" height="3.65217" rx="0.521739" fill="#CFE2FF"/>
<rect x="98.4348" y="32.3477" width="3.65217" height="3.65217" rx="0.521739" fill="#CFE2FF"/>
<rect x="106.261" y="32.3477" width="3.65217" height="3.65217" rx="0.521739" fill="#CFE2FF"/>
</g>
<path d="M136.06 18.1C135.3 18.1 134.613 18.2333 134 18.5C133.387 18.7533 132.867 19.1333 132.44 19.64C132.013 20.1333 131.687 20.74 131.46 21.46C131.233 22.1667 131.12 22.9667 131.12 23.86C131.12 25.0333 131.3 26.0533 131.66 26.92C132.033 27.7867 132.58 28.4533 133.3 28.92C134.033 29.3867 134.947 29.62 136.04 29.62C136.667 29.62 137.26 29.5667 137.82 29.46C138.38 29.3533 138.927 29.22 139.46 29.06V30.62C138.927 30.82 138.373 30.9667 137.8 31.06C137.24 31.1533 136.567 31.2 135.78 31.2C134.327 31.2 133.113 30.9 132.14 30.3C131.167 29.7 130.433 28.8467 129.94 27.74C129.46 26.6333 129.22 25.3333 129.22 23.84C129.22 22.76 129.367 21.7733 129.66 20.88C129.967 19.9867 130.407 19.2133 130.98 18.56C131.567 17.9067 132.287 17.4067 133.14 17.06C133.993 16.7 134.973 16.52 136.08 16.52C136.813 16.52 137.52 16.5933 138.2 16.74C138.88 16.8867 139.487 17.0933 140.02 17.36L139.3 18.88C138.86 18.68 138.367 18.5 137.82 18.34C137.287 18.18 136.7 18.1 136.06 18.1ZM151.657 25.62C151.657 26.5133 151.537 27.3067 151.297 28C151.07 28.68 150.737 29.26 150.297 29.74C149.87 30.22 149.343 30.5867 148.717 30.84C148.103 31.08 147.417 31.2 146.657 31.2C145.95 31.2 145.297 31.08 144.697 30.84C144.097 30.5867 143.577 30.22 143.137 29.74C142.697 29.26 142.35 28.68 142.097 28C141.857 27.3067 141.737 26.5133 141.737 25.62C141.737 24.4333 141.937 23.4333 142.337 22.62C142.737 21.7933 143.31 21.1667 144.057 20.74C144.803 20.3 145.69 20.08 146.717 20.08C147.69 20.08 148.543 20.3 149.277 20.74C150.023 21.1667 150.603 21.7933 151.017 22.62C151.443 23.4333 151.657 24.4333 151.657 25.62ZM143.557 25.62C143.557 26.46 143.663 27.1933 143.877 27.82C144.103 28.4333 144.45 28.9067 144.917 29.24C145.383 29.5733 145.977 29.74 146.697 29.74C147.417 29.74 148.01 29.5733 148.477 29.24C148.943 28.9067 149.283 28.4333 149.497 27.82C149.723 27.1933 149.837 26.46 149.837 25.62C149.837 24.7667 149.723 24.04 149.497 23.44C149.27 22.84 148.923 22.38 148.457 22.06C148.003 21.7267 147.41 21.56 146.677 21.56C145.583 21.56 144.79 21.92 144.297 22.64C143.803 23.36 143.557 24.3533 143.557 25.62ZM153.886 24.56C153.886 23 154.039 21.6733 154.346 20.58C154.666 19.4733 155.153 18.5933 155.806 17.94C156.473 17.2733 157.326 16.8267 158.366 16.6C159.233 16.4133 160.079 16.2467 160.906 16.1C161.733 15.9533 162.506 15.82 163.226 15.7L163.526 17.24C163.179 17.2933 162.793 17.36 162.366 17.44C161.939 17.5067 161.506 17.58 161.066 17.66C160.626 17.7267 160.199 17.8 159.786 17.88C159.386 17.9467 159.033 18.0133 158.726 18.08C158.286 18.1733 157.893 18.3333 157.546 18.56C157.199 18.7733 156.899 19.0667 156.646 19.44C156.406 19.8133 156.213 20.2733 156.066 20.82C155.919 21.3667 155.833 22.0133 155.806 22.76H155.926C156.113 22.5067 156.366 22.2467 156.686 21.98C157.019 21.7133 157.413 21.4867 157.866 21.3C158.333 21.1133 158.859 21.02 159.446 21.02C160.379 21.02 161.153 21.2267 161.766 21.64C162.393 22.04 162.859 22.6 163.166 23.32C163.486 24.04 163.646 24.88 163.646 25.84C163.646 27.0267 163.439 28.02 163.026 28.82C162.613 29.62 162.039 30.22 161.306 30.62C160.573 31.0067 159.719 31.2 158.746 31.2C158.013 31.2 157.346 31.06 156.746 30.78C156.146 30.4867 155.633 30.06 155.206 29.5C154.779 28.94 154.453 28.2467 154.226 27.42C153.999 26.5933 153.886 25.64 153.886 24.56ZM158.886 29.74C159.473 29.74 159.979 29.62 160.406 29.38C160.846 29.14 161.186 28.7467 161.426 28.2C161.666 27.6533 161.786 26.9267 161.786 26.02C161.786 24.9267 161.579 24.0667 161.166 23.44C160.766 22.8 160.099 22.48 159.166 22.48C158.579 22.48 158.046 22.6133 157.566 22.88C157.086 23.1333 156.686 23.4267 156.366 23.76C156.046 24.0933 155.819 24.3733 155.686 24.6C155.686 25.2533 155.733 25.8867 155.826 26.5C155.919 27.1133 156.079 27.6667 156.306 28.16C156.546 28.64 156.873 29.0267 157.286 29.32C157.713 29.6 158.246 29.74 158.886 29.74ZM166.419 31V20.28H168.179V24.68H170.959C171.892 24.68 172.659 24.7933 173.259 25.02C173.859 25.2467 174.305 25.5867 174.599 26.04C174.892 26.48 175.039 27.04 175.039 27.72C175.039 28.3867 174.892 28.9667 174.599 29.46C174.319 29.9533 173.872 30.3333 173.259 30.6C172.659 30.8667 171.865 31 170.879 31H166.419ZM170.719 29.58C171.479 29.58 172.099 29.4533 172.579 29.2C173.059 28.9333 173.299 28.4733 173.299 27.82C173.299 27.1667 173.079 26.7267 172.639 26.5C172.199 26.26 171.565 26.14 170.739 26.14H168.179V29.58H170.719ZM176.819 31V20.28H178.579V31H176.819ZM189.385 21.76H185.885V31H184.145V21.76H180.685V20.28H189.385V21.76ZM193.157 26.82C193.157 26.94 193.15 27.1133 193.137 27.34C193.137 27.5533 193.13 27.7867 193.117 28.04C193.104 28.28 193.09 28.5133 193.077 28.74C193.064 28.9533 193.05 29.1267 193.037 29.26L198.777 20.28H200.937V31H199.297V24.68C199.297 24.4667 199.297 24.1867 199.297 23.84C199.31 23.4933 199.324 23.1533 199.337 22.82C199.35 22.4733 199.364 22.2133 199.377 22.04L193.677 31H191.497V20.28H193.157V26.82ZM205.008 31H202.968L206.028 26.5C205.615 26.3933 205.215 26.2267 204.828 26C204.442 25.76 204.128 25.4333 203.888 25.02C203.648 24.5933 203.528 24.0667 203.528 23.44C203.528 22.4133 203.875 21.6333 204.568 21.1C205.262 20.5533 206.182 20.28 207.328 20.28H212.128V31H210.368V26.74H207.768L205.008 31ZM205.228 23.46C205.228 24.0733 205.455 24.5333 205.908 24.84C206.375 25.1333 207.022 25.28 207.848 25.28H210.368V21.74H207.508C206.695 21.74 206.108 21.9 205.748 22.22C205.402 22.54 205.228 22.9533 205.228 23.46Z" fill="#1C1C1C"/>
<defs>
<linearGradient id="paint0_linear_741_4554" x1="123.27" y1="13.8259" x2="86.4348" y2="13.8259" gradientUnits="userSpaceOnUse">
<stop stop-color="#FCE000"/>
<stop offset="1" stop-color="#EF534F"/>
</linearGradient>
<linearGradient id="paint1_linear_741_4554" x1="111.219" y1="27.3905" x2="106.261" y2="27.3905" gradientUnits="userSpaceOnUse">
<stop stop-color="#FCE000"/>
<stop offset="1" stop-color="#EF534F"/>
</linearGradient>
<clipPath id="clip0_741_4554">
<rect width="48" height="48" fill="white" transform="translate(76)"/>
</clipPath>
</defs>
</svg>
