<svg width="32.000000" height="32.000000" viewBox="0 0 32 32" fill="none" xmlns="http://www.w3.org/2000/svg" xmlns:xlink="http://www.w3.org/1999/xlink">
	<desc>
			Created with Pixso.
	</desc>
	<defs>
		<clipPath id="clip6_40060">
			<rect id="interrogation_3916693 1" width="32.000000" height="32.000000" fill="white" fill-opacity="0"/>
		</clipPath>
	</defs>
	<rect id="interrogation_3916693 1" width="32.000000" height="32.000000" fill="#FFFFFF" fill-opacity="0"/>
	<g clip-path="url(#clip6_40060)">
		<path id="Vector" d="M16 0C12.83 0 9.74 0.93 7.11 2.69C4.48 4.45 2.42 6.95 1.21 9.87C0 12.8 -0.32 16.01 0.3 19.12C0.92 22.22 2.44 25.07 4.68 27.31C6.92 29.55 9.77 31.07 12.87 31.69C15.98 32.3 19.19 31.99 22.12 30.78C25.04 29.57 27.54 27.52 29.3 24.88C31.06 22.25 32 19.16 32 16C31.99 11.75 30.3 7.69 27.3 4.69C24.3 1.69 20.24 0 16 0ZM16 29.33C13.36 29.33 10.78 28.55 8.59 27.08C6.4 25.62 4.69 23.53 3.68 21.1C2.67 18.66 2.4 15.98 2.92 13.39C3.43 10.81 4.7 8.43 6.57 6.57C8.43 4.7 10.81 3.43 13.39 2.92C15.98 2.4 18.66 2.67 21.1 3.68C23.53 4.69 25.62 6.39 27.08 8.59C28.55 10.78 29.33 13.36 29.33 16C29.33 19.53 27.92 22.92 25.42 25.42C22.92 27.92 19.53 29.32 16 29.33Z" fill="#1C1C1C" fill-opacity="1.000000" fill-rule="nonzero"/>
		<path id="Vector" d="M16.95 6.75C16.18 6.61 15.39 6.64 14.64 6.83C13.88 7.03 13.18 7.4 12.58 7.9C11.98 8.4 11.5 9.03 11.16 9.73C10.83 10.44 10.66 11.21 10.66 12C10.66 12.35 10.8 12.69 11.05 12.94C11.3 13.19 11.64 13.33 12 13.33C12.35 13.33 12.69 13.19 12.94 12.94C13.19 12.69 13.33 12.35 13.33 12C13.33 11.6 13.41 11.21 13.58 10.86C13.75 10.5 13.99 10.19 14.29 9.94C14.59 9.69 14.95 9.51 15.33 9.41C15.71 9.31 16.11 9.3 16.49 9.37C17.02 9.47 17.5 9.73 17.88 10.11C18.26 10.49 18.52 10.97 18.62 11.5C18.73 12.05 18.66 12.62 18.42 13.13C18.18 13.64 17.78 14.06 17.29 14.33C16.48 14.8 15.8 15.49 15.34 16.31C14.88 17.13 14.64 18.06 14.66 19L14.66 20C14.66 20.35 14.8 20.69 15.05 20.94C15.3 21.19 15.64 21.33 16 21.33C16.35 21.33 16.69 21.19 16.94 20.94C17.19 20.69 17.33 20.35 17.33 20L17.33 19C17.31 18.54 17.42 18.08 17.64 17.67C17.85 17.26 18.18 16.91 18.57 16.67C19.54 16.14 20.31 15.32 20.8 14.33C21.28 13.34 21.44 12.22 21.27 11.14C21.09 10.05 20.58 9.04 19.81 8.26C19.03 7.47 18.04 6.94 16.95 6.75Z" fill="#1C1C1C" fill-opacity="1.000000" fill-rule="nonzero"/>
		<path id="Vector" d="M16 22.66C16.73 22.66 17.33 23.26 17.33 24C17.33 24.73 16.73 25.33 16 25.33C15.26 25.33 14.66 24.73 14.66 24C14.66 23.26 15.26 22.66 16 22.66Z" fill="#1C1C1C" fill-opacity="1.000000" fill-rule="evenodd"/>
	</g>
</svg>
