<svg width="21.000000" height="21.000000" viewBox="0 0 21 21" fill="none" xmlns="http://www.w3.org/2000/svg" xmlns:xlink="http://www.w3.org/1999/xlink">
	<desc>
			Created with Pixso.
	</desc>
	<defs/>
	<path id="Vector" d="M19.17 7.63L3.46 0.24C2.58 -0.19 1.53 -0.04 0.79 0.62C0.06 1.28 -0.2 2.31 0.14 3.24C0.16 3.28 4 10.5 4 10.5C4 10.5 0.23 17.72 0.22 17.76C-0.12 18.69 0.14 19.71 0.87 20.38C1.33 20.78 1.9 21 2.48 21C2.84 21 3.2 20.91 3.53 20.75L19.17 13.37C20.3 12.84 21 11.74 21 10.5C21 9.25 20.29 8.16 19.17 7.63ZM1.77 2.59C1.66 2.23 1.89 1.99 1.97 1.92C2.04 1.85 2.33 1.63 2.7 1.82C2.7 1.82 18.43 9.21 18.43 9.21C18.64 9.31 18.81 9.45 18.95 9.62L5.52 9.62L1.77 2.59ZM18.43 11.78L2.77 19.17C2.4 19.36 2.12 19.14 2.04 19.07C1.97 19.01 1.74 18.76 1.85 18.4L5.52 11.37L18.95 11.37C18.82 11.54 18.64 11.68 18.43 11.78Z" fill="#1C1C1C" fill-opacity="1.000000" fill-rule="nonzero"/>
</svg>
