<svg width="19.000000" height="22.000000" viewBox="0 0 19 22" fill="none" xmlns="http://www.w3.org/2000/svg" xmlns:xlink="http://www.w3.org/1999/xlink">
	<desc>
			Created with Pixso.
	</desc>
	<defs/>
	<path id="Vector" d="M15.25 0C14.7 0 14.16 0.11 13.67 0.34C13.17 0.57 12.73 0.9 12.38 1.31C12.03 1.72 11.77 2.2 11.63 2.72C11.49 3.24 11.47 3.78 11.57 4.31L6.12 8.05C6.09 8.06 6.07 8.08 6.04 8.11C5.49 7.68 4.83 7.42 4.13 7.35C3.43 7.28 2.73 7.4 2.1 7.7C1.47 8 0.94 8.47 0.56 9.05C0.19 9.63 0 10.31 0 11C0 11.68 0.19 12.36 0.56 12.94C0.94 13.52 1.47 13.99 2.1 14.29C2.73 14.59 3.43 14.71 4.13 14.64C4.83 14.57 5.49 14.31 6.04 13.88C6.07 13.91 6.09 13.93 6.12 13.94L11.57 17.68C11.41 18.56 11.58 19.47 12.06 20.24C12.53 21.01 13.28 21.57 14.16 21.83C15.03 22.1 15.98 22.04 16.81 21.66C17.64 21.29 18.31 20.63 18.68 19.81C19.04 18.99 19.09 18.06 18.81 17.21C18.53 16.35 17.94 15.63 17.16 15.17C16.37 14.72 15.43 14.56 14.54 14.73C13.64 14.9 12.83 15.39 12.28 16.1L7.12 12.56C7.35 12.09 7.48 11.56 7.48 11C7.48 10.43 7.35 9.9 7.12 9.43L12.28 5.89C12.67 6.38 13.17 6.77 13.76 7.02C14.34 7.27 14.98 7.37 15.61 7.31C16.25 7.25 16.85 7.03 17.38 6.68C17.9 6.33 18.33 5.85 18.61 5.29C18.89 4.73 19.02 4.11 18.99 3.48C18.96 2.86 18.77 2.26 18.43 1.73C18.1 1.2 17.63 0.76 17.07 0.46C16.51 0.15 15.89 0 15.25 0ZM13.24 3.66C13.24 3.14 13.45 2.64 13.83 2.27C14.21 1.9 14.72 1.69 15.25 1.69C15.79 1.69 16.3 1.9 16.68 2.27C17.05 2.64 17.27 3.14 17.27 3.66C17.27 4.19 17.05 4.69 16.68 5.06C16.3 5.43 15.79 5.64 15.25 5.64C14.72 5.64 14.21 5.43 13.83 5.06C13.45 4.69 13.24 4.19 13.24 3.66ZM3.74 9.02C3.2 9.02 2.69 9.23 2.31 9.6C1.93 9.97 1.72 10.47 1.72 11C1.72 11.52 1.93 12.02 2.31 12.39C2.69 12.76 3.2 12.97 3.74 12.97C4.27 12.97 4.78 12.76 5.16 12.39C5.54 12.02 5.75 11.52 5.75 11C5.75 10.47 5.54 9.97 5.16 9.6C4.78 9.23 4.27 9.02 3.74 9.02ZM15.25 16.35C14.72 16.35 14.21 16.56 13.83 16.93C13.45 17.3 13.24 17.8 13.24 18.33C13.24 18.85 13.45 19.35 13.83 19.72C14.21 20.09 14.72 20.3 15.25 20.3C15.79 20.3 16.3 20.09 16.68 19.72C17.05 19.35 17.27 18.85 17.27 18.33C17.27 17.8 17.05 17.3 16.68 16.93C16.3 16.56 15.79 16.35 15.25 16.35Z" fill="#1C1C1C" fill-opacity="1.000000" fill-rule="evenodd"/>
</svg>
